<svg width="50" height="50" viewBox="0 0 50 50" fill="none" xmlns="http://www.w3.org/2000/svg">
<rect width="50" height="50" rx="25" fill="white"/>
<path fill-rule="evenodd" clip-rule="evenodd" d="M9.83199 15.0337C12.201 11.3672 17.3331 11.9559 20.441 15.0361L25.0014 19.5557L29.5616 15.0361C32.6696 11.9559 37.8016 11.3672 40.1707 15.0337L27.8298 27.2644C26.2677 28.8125 23.735 28.8125 22.1729 27.2644L9.83199 15.0337Z" fill="url(#paint0_linear_203_58)"/>
<path fill-rule="evenodd" clip-rule="evenodd" d="M20.4473 15.0979C17.3238 12.0023 12.1627 11.415 9.79536 15.1084C8.02521 17.87 7 21.1468 7 24.6609C7 34.5132 15.0589 42.5001 25 42.5001C34.9411 42.5001 43 34.5132 43 24.6609C43 21.1468 41.9748 17.87 40.2046 15.1084C37.8372 11.4149 32.6761 12.0023 29.5527 15.0979C33.1665 16.7908 35.6667 20.4364 35.6667 24.6609C35.6667 30.4993 30.891 35.2322 25 35.2322C19.109 35.2322 14.3333 30.4993 14.3333 24.6609C14.3333 20.4364 16.8335 16.7908 20.4473 15.0979Z" fill="url(#paint1_linear_203_58)"/>
<defs>
<linearGradient id="paint0_linear_203_58" x1="25.0014" y1="9.74158" x2="25.0014" y2="31.1655" gradientUnits="userSpaceOnUse">
<stop stop-color="#0077FF"/>
<stop offset="1" stop-color="#0077FF" stop-opacity="0"/>
</linearGradient>
<linearGradient id="paint1_linear_203_58" x1="25" y1="15.523" x2="25" y2="69.784" gradientUnits="userSpaceOnUse">
<stop stop-color="#0077FF"/>
<stop offset="0.552633" stop-color="#0077FF" stop-opacity="0.5"/>
</linearGradient>
</defs>
</svg>
