<svg width="24" height="20" viewBox="0 0 24 20" fill="none" xmlns="http://www.w3.org/2000/svg">
<g clip-path="url(#clip0_410_251)">
<path d="M9.2066 2.98503C10.1612 2.95775 11.0833 2.6321 11.8434 2.05383L11.8322 2.06183C12.6747 1.45865 13.678 1.1205 14.7138 1.09063H14.7218C15.2496 1.03249 15.7835 1.06715 16.2994 1.19303L16.2682 1.18663C16.6597 1.29863 16.8714 1.46663 16.9034 1.69063C16.9514 1.90077 16.8394 2.0725 16.5674 2.20583C16.2535 2.35358 15.9139 2.4389 15.5674 2.45703H15.5602C15.1592 2.54215 14.7413 2.48973 14.3738 2.30823L14.3842 2.31303C14.2825 2.26349 14.1919 2.19375 14.1181 2.10806C14.0442 2.02237 13.9886 1.92253 13.9546 1.81463L13.953 1.80903C13.553 1.84103 13.3013 1.92903 13.1978 2.07303C13.1028 2.18751 13.0558 2.33428 13.0666 2.48263V2.48103C13.1146 2.70503 13.3706 2.90503 13.8346 3.08103C14.2218 3.20263 14.6666 3.27303 15.1274 3.27303C15.3562 3.27303 15.5818 3.25543 15.801 3.22263L15.7762 3.22583H15.8018C16.513 3.22583 17.1738 3.00583 17.7186 2.63143L17.7074 2.63863C17.8643 2.51698 17.9858 2.3556 18.0594 2.1712C18.133 1.98679 18.1559 1.78608 18.1258 1.58983L18.1266 1.59623C18.0306 1.11623 17.6271 0.712767 16.9162 0.385834C15.9449 0.0247679 14.8982 -0.0852981 13.873 0.0658341L13.9066 0.0618341C12.2442 0.219701 11.185 0.571434 10.729 1.11703C10.1007 1.73325 9.25541 2.07777 8.3754 2.07623H8.341H8.3426C7.97986 2.13217 7.6092 2.1062 7.2578 2.00023L7.2754 2.00503C7.16808 1.97863 7.06912 1.92567 6.98762 1.85102C6.90612 1.77637 6.8447 1.68243 6.809 1.57783L6.8074 1.57303C6.79934 1.48912 6.81941 1.40492 6.86445 1.33366C6.90949 1.26241 6.97695 1.20815 7.0562 1.17943L7.0586 1.17863C7.2578 1.08743 7.4898 1.02343 7.733 0.999434L7.7418 0.998634C8.00085 0.982296 8.26092 0.995447 8.517 1.03783L8.497 1.03543C8.7242 1.06423 8.9314 1.11943 9.125 1.19943L9.1082 1.19383C9.19624 1.16214 9.27453 1.1081 9.3354 1.03703L9.3362 1.03623C9.35598 1.01089 9.36954 0.981254 9.3758 0.949715C9.38205 0.918176 9.38082 0.885611 9.3722 0.854634V0.856234C9.3242 0.680234 9.14847 0.556234 8.845 0.484234C8.47729 0.406277 8.09962 0.38657 7.7258 0.425834L7.741 0.424234C6.90953 0.504234 6.4258 0.688234 6.2898 0.976234C6.1673 1.1878 6.11258 1.43182 6.133 1.67543V1.67143C6.20316 1.91536 6.33157 2.13857 6.50717 2.32184C6.68277 2.5051 6.90029 2.64293 7.141 2.72343L7.1522 2.72663C7.601 2.91383 8.1218 3.02263 8.669 3.02263C8.857 3.02263 9.0418 3.00983 9.2226 2.98503L9.2018 2.98743L9.2066 2.98503ZM20.4546 6.77543C19.9426 6.9029 19.3909 7.0149 18.7994 7.11143C18.2079 7.20797 17.5845 7.2869 16.929 7.34823C16.2735 7.41223 15.5781 7.46477 14.8426 7.50583C14.1071 7.5469 13.3477 7.5669 12.5642 7.56583C11.7487 7.56583 10.9733 7.54583 10.2378 7.50583C9.50233 7.46583 8.80287 7.40983 8.1394 7.33783C7.47593 7.26583 6.84847 7.1821 6.257 7.08663C5.66553 6.99117 5.1138 6.8861 4.6018 6.77143C3.83527 6.59306 3.08939 6.33541 2.3762 6.00263L2.4458 6.03223C2.04318 5.86175 1.68993 5.59269 1.4186 5.24983L1.4146 5.24423C1.5066 5.93783 1.6282 6.54263 1.7858 7.13383L1.7626 7.03143C1.9466 7.73943 2.1314 8.31143 2.3434 8.86983L2.3026 8.74743C2.05805 8.89483 1.82773 9.06462 1.6146 9.25463L1.6186 9.25063C1.4001 9.44593 1.19808 9.65892 1.0146 9.88743L1.0066 9.89783C0.659652 10.3264 0.395428 10.8158 0.227399 11.341L0.218599 11.373C0.0579116 11.8826 -0.0151254 12.4158 0.00259884 12.9498V12.9426C0.0305988 13.4754 0.182599 13.9674 0.430599 14.397L0.422599 14.381C0.678047 14.8176 1.01128 15.2037 1.4058 15.5202L1.4138 15.5266C1.79927 15.8391 2.24887 16.0628 2.7306 16.1818L2.7538 16.1866C3.25148 16.292 3.76543 16.2947 4.2642 16.1946L4.2402 16.1986C4.4786 16.1602 4.6922 16.097 4.8938 16.0122L4.8754 16.0194C5.0914 15.9314 5.30313 15.8554 5.5106 15.7914H5.485C5.07196 15.7919 4.6624 15.716 4.277 15.5674L4.3002 15.5754C3.89495 15.415 3.51607 15.1947 3.1762 14.9218L3.1842 14.9282C2.80832 14.6466 2.48314 14.303 2.2226 13.9122L2.213 13.897C1.94955 13.4992 1.7817 13.0457 1.7226 12.5722L1.721 12.557C1.62376 12.1115 1.62512 11.65 1.725 11.205L1.721 11.2258C1.82175 10.7884 2.00325 10.3735 2.2562 10.0026L2.2482 10.0146C2.3122 9.95063 2.3722 9.8869 2.4282 9.82343C2.4842 9.75997 2.5442 9.69623 2.6082 9.63223C2.7522 10.0002 2.90793 10.36 3.0754 10.7114C3.24287 11.0629 3.4242 11.4069 3.6194 11.7434C4.00287 12.3349 4.3946 12.9064 4.7946 13.4578C5.1946 14.0093 5.59407 14.564 5.993 15.1218C6.1434 15.3986 6.293 15.7306 6.4194 16.0746L6.437 16.129C6.5386 16.3986 6.6338 16.7282 6.705 17.0666L6.713 17.1122C6.9826 17.477 7.2994 17.7874 7.6594 18.041L7.6722 18.0498C8.0306 18.2994 8.4442 18.5034 8.8874 18.641L8.9194 18.6498C9.4098 18.825 9.9914 18.9714 10.5914 19.0626L10.645 19.069C11.1826 19.153 11.8026 19.201 12.4338 19.201H12.5634C13.2051 19.2004 13.8458 19.149 14.4794 19.0474L14.4098 19.0562C15.0473 18.9606 15.6751 18.8085 16.2858 18.6018L16.209 18.6242C16.6364 18.4837 17.0413 18.2825 17.4114 18.0266L17.3954 18.037C17.7596 17.7825 18.0769 17.4666 18.333 17.1034L18.341 17.0914H18.413C18.477 16.8034 18.5607 16.4837 18.6642 16.1322C18.7834 15.7354 18.9258 15.3938 19.0986 15.0706L19.0834 15.101C19.4669 14.5416 19.8586 13.9898 20.2586 13.4458C20.6586 12.9018 21.0583 12.3264 21.4578 11.7194C21.9779 10.7809 22.4107 9.79645 22.7506 8.77863L22.7882 8.64983C23.144 7.59419 23.421 6.51363 23.617 5.41703L23.6394 5.26823C23.3515 5.61738 22.989 5.89758 22.5786 6.08823L22.5602 6.09623C21.9076 6.40767 21.2177 6.6338 20.5074 6.76903L20.453 6.77783L20.4546 6.77543ZM4.6026 5.11943C5.1146 5.2469 5.66633 5.3589 6.2578 5.45543C6.84927 5.55197 7.47273 5.6309 8.1282 5.69223C8.78367 5.75623 9.47513 5.80423 10.2026 5.83623C10.9301 5.86823 11.6919 5.88423 12.4882 5.88423C13.3037 5.88423 14.0751 5.86823 14.8026 5.83623C15.5301 5.80423 16.2215 5.75623 16.877 5.69223C17.5325 5.62823 18.1519 5.5445 18.7354 5.44103C19.3189 5.33757 19.8743 5.22957 20.4018 5.11703C21.2687 4.93168 22.1049 4.62464 22.8858 4.20503L22.8362 4.22983C23.3717 3.91037 23.6394 3.59063 23.6394 3.27063C23.6331 3.13897 23.599 3.01012 23.5395 2.89252C23.4799 2.77492 23.3962 2.67123 23.2938 2.58823L23.2922 2.58663C23.0042 2.33816 22.675 2.14188 22.3194 2.00663L22.297 1.99943C22.393 2.06583 22.4722 2.14983 22.5314 2.24743L22.5338 2.25063C22.5959 2.34732 22.6292 2.45971 22.6298 2.57463C22.6298 2.91063 22.3821 3.21437 21.8866 3.48583C21.2434 3.80743 20.497 4.06423 19.7138 4.21943L19.657 4.22903C18.7295 4.42103 17.6743 4.58503 16.4914 4.72103C15.3634 4.85143 14.0562 4.92583 12.7314 4.92583L12.5498 4.92503H12.5594H12.429C11.1026 4.92503 9.7922 4.85543 8.5018 4.71943L8.6626 4.73303C7.53611 4.62348 6.41654 4.45175 5.309 4.21863L5.509 4.25383C4.73298 4.08395 3.98127 3.81762 3.2714 3.46103L3.3258 3.48583C2.83033 3.21437 2.5826 2.91863 2.5826 2.59863V2.59783C2.5826 2.44823 2.6226 2.30823 2.693 2.18743L2.6906 2.19143C2.7922 2.03463 2.9242 1.90583 3.0794 1.81063L3.085 1.80743C2.5916 1.98768 2.11987 2.22247 1.6786 2.50743L1.7066 2.49063C1.4338 2.65063 1.2506 2.93783 1.2394 3.26903V3.27063C1.2714 3.60663 1.56313 3.93437 2.1146 4.25383C2.8322 4.63303 3.6634 4.93303 4.5394 5.11063L4.5994 5.12103L4.6026 5.11943Z" fill="#B3BAC3"/>
</g>
<defs>
<clipPath id="clip0_410_251">
<rect width="24" height="19.2" fill="white"/>
</clipPath>
</defs>
</svg>
