<svg width="22" height="20" viewBox="0 0 22 20" fill="none" xmlns="http://www.w3.org/2000/svg">
<path d="M4.5 5.49949L1.5 5.99949C2.315 2.24249 4.682 1.00299 7 0.99949C8.4985 0.99699 9.976 1.51249 11 1.99949C12.024 1.51249 13.5 0.99949 15 0.99949C17.3055 0.99949 19.685 2.24249 20.5 5.99949L17.5 5.49949C17.7795 6.54949 18.394 8.39549 17.5 9.99949C16.01 8.66299 12.565 6.64499 11 5.49949C9.435 6.64499 5.99 8.66299 4.5 9.99949C3.606 8.39599 4.2205 6.54949 4.5 5.49949V5.49949Z" stroke="white" stroke-width="2" stroke-linecap="round" stroke-linejoin="round"/>
<path d="M11 5.5C10.6225 7.4445 10.0945 12.2665 11 16" stroke="white" stroke-width="2" stroke-linecap="round" stroke-linejoin="round"/>
<path d="M5 19H17C14.6065 16.7075 13.5 16.0025 11 16C8.5 15.9975 5.946 17.691 5 19Z" stroke="white" stroke-width="2" stroke-linecap="round" stroke-linejoin="round"/>
</svg>
