<svg width="21" height="22" viewBox="0 0 21 22" fill="none" xmlns="http://www.w3.org/2000/svg">
<path d="M20.1517 15.5457L15.8205 13.4832C15.6354 13.3956 15.4298 13.3771 15.2345 13.4306C15.0392 13.4841 14.8648 13.6066 14.7376 13.7797L12.8195 16.3836C9.8092 14.8066 7.38658 12.1148 5.96724 8.76996L8.31076 6.63871C8.46687 6.49764 8.57736 6.30389 8.62551 6.0868C8.67365 5.86971 8.65683 5.6411 8.57759 5.43559L6.72134 0.623087C6.63437 0.401544 6.48056 0.220661 6.28642 0.111629C6.09228 0.00259753 5.86998 -0.0277494 5.65786 0.0258213L1.63598 1.05707C1.43148 1.10954 1.24901 1.23749 1.11837 1.42002C0.987737 1.60255 0.91664 1.8289 0.916687 2.06211C0.916687 13.0836 8.95658 21.9996 18.8605 21.9996C19.0704 21.9998 19.2742 21.9208 19.4386 21.7756C19.6029 21.6305 19.7181 21.4277 19.7654 21.2004L20.6935 16.7316C20.7414 16.4948 20.7135 16.2468 20.6146 16.0304C20.5157 15.8139 20.352 15.6425 20.1517 15.5457Z" fill="white"/>
</svg>
