<svg width="50" height="50" viewBox="0 0 50 50" fill="none" xmlns="http://www.w3.org/2000/svg">
<circle cx="25" cy="25" r="25" fill="white" fill-opacity="0.2"/>
<path d="M34.1517 29.5457L29.8204 27.4832C29.6354 27.3956 29.4297 27.3771 29.2344 27.4306C29.0392 27.4841 28.8648 27.6066 28.7376 27.7797L26.8195 30.3836C23.8091 28.8066 21.3865 26.1148 19.9672 22.77L22.3107 20.6387C22.4668 20.4976 22.5773 20.3039 22.6254 20.0868C22.6736 19.8697 22.6568 19.6411 22.5775 19.4356L20.7213 14.6231C20.6343 14.4015 20.4805 14.2207 20.2864 14.1116C20.0922 14.0026 19.8699 13.9723 19.6578 14.0258L15.6359 15.0571C15.4314 15.1095 15.249 15.2375 15.1183 15.42C14.9877 15.6026 14.9166 15.8289 14.9166 16.0621C14.9166 27.0836 22.9565 35.9996 32.8604 35.9996C33.0704 35.9998 33.2742 35.9208 33.4385 35.7756C33.6029 35.6305 33.7181 35.4277 33.7653 35.2004L34.6934 30.7316C34.7413 30.4948 34.7135 30.2468 34.6146 30.0304C34.5157 29.8139 34.352 29.6425 34.1517 29.5457Z" fill="white"/>
</svg>
