<svg width="30" height="26" viewBox="0 0 30 26" fill="none" xmlns="http://www.w3.org/2000/svg">
<path d="M11.5951 0V2.2425C10.3221 1.70625 8.95706 1.43 7.59202 1.43C4.84663 1.43 2.10123 2.535 0 4.76125L5.10736 10.1725H6.80982V11.9762C8.12883 13.3737 9.84663 14.105 11.5798 14.1862V17.875H6.99387V22.75C6.99387 24.5375 8.37423 26 10.0613 26H25.3988C27.9448 26 30 23.8225 30 21.125V0H11.5951ZM9.89264 10.4163V6.9225H6.39571L4.80061 5.2325C5.67485 4.875 6.62577 4.68 7.59202 4.68C9.64724 4.68 11.5644 5.525 13.0215 7.0525L15.184 9.34375L14.8773 9.66875C14.0951 10.4975 13.0521 10.9688 11.9325 10.9688C11.2117 10.9688 10.5061 10.7737 9.89264 10.4163ZM26.9325 21.125C26.9325 22.0187 26.2423 22.75 25.3988 22.75C24.5552 22.75 23.865 22.0187 23.865 21.125V17.875H14.6626V13.6663C15.5368 13.2925 16.3497 12.74 17.0552 11.9925L17.362 11.6675L21.7025 16.25H23.865V13.9587L14.6626 4.2575V3.25H26.9325V21.125Z" fill="#0077FF"/>
</svg>
