<svg width="30" height="20" viewBox="0 0 30 20" fill="none" xmlns="http://www.w3.org/2000/svg">
<path fill-rule="evenodd" clip-rule="evenodd" d="M16.9952 11.3098L13.3146 14.9905L12 13.6759L15.6806 9.99524L12 6.31459L13.3146 5L16.9952 8.68064L20.6759 5L21.9905 6.31459L18.3098 9.99524L21.9905 13.6759L20.6759 14.9905L16.9952 11.3098Z" fill="black"/>
<path fill-rule="evenodd" clip-rule="evenodd" d="M28.0663 2.22222C28.2189 2.22222 28.3425 2.38804 28.3425 2.59259V17.4074C28.3425 17.612 28.2189 17.7778 28.0663 17.7778H6.94463C6.86669 17.7778 6.79238 17.7336 6.74001 17.6562L1.72908 10.2488C1.63359 10.1076 1.63359 9.89235 1.72908 9.75118L6.74001 2.34377C6.79238 2.26637 6.86669 2.22222 6.94463 2.22222H28.0663ZM30 2.59259C30 1.16074 29.1343 0 28.0663 0H6.94463C6.39904 0 5.87884 0.309017 5.5123 0.85085L0.501371 8.25826C-0.167124 9.24646 -0.167124 10.7535 0.501371 11.7417L5.5123 19.1491C5.87884 19.691 6.39904 20 6.94463 20H28.0663C29.1343 20 30 18.8393 30 17.4074V2.59259Z" fill="black"/>
</svg>
