<svg width="18" height="22" viewBox="0 0 18 22" fill="none" xmlns="http://www.w3.org/2000/svg">
<path d="M4.09064 6.46211C3.98576 6.3576 3.90254 6.2334 3.84576 6.09666C3.78898 5.95991 3.75975 5.8133 3.75975 5.66524C3.75975 5.51717 3.78898 5.37056 3.84576 5.23382C3.90254 5.09707 3.98576 4.97288 4.09064 4.86836L8.02814 0.930863C8.13265 0.825983 8.25685 0.742766 8.39359 0.685985C8.53034 0.629204 8.67695 0.599976 8.82501 0.599976C8.97308 0.599976 9.11969 0.629204 9.25643 0.685985C9.39318 0.742766 9.51737 0.825983 9.62189 0.930863L13.5594 4.86836C13.6643 4.97288 13.7475 5.09707 13.8043 5.23382C13.861 5.37056 13.8903 5.51717 13.8903 5.66524C13.8903 5.8133 13.861 5.95991 13.8043 6.09666C13.7475 6.2334 13.6643 6.3576 13.5594 6.46211C13.3471 6.67166 13.0608 6.78915 12.7625 6.78915C12.4642 6.78915 12.1779 6.67166 11.9656 6.46211L9.95001 4.44649V12.2277C9.95001 12.5261 9.83148 12.8123 9.62051 13.0232C9.40953 13.2342 9.12338 13.3527 8.82501 13.3527C8.52664 13.3527 8.2405 13.2342 8.02952 13.0232C7.81854 12.8123 7.70001 12.5261 7.70001 12.2277V4.44649L5.68439 6.46211C5.57987 6.56699 5.45568 6.65021 5.31893 6.70699C5.18219 6.76377 5.03558 6.793 4.88751 6.793C4.73945 6.793 4.59284 6.76377 4.45609 6.70699C4.31935 6.65021 4.19515 6.56699 4.09064 6.46211ZM15.575 8.47774H13.325C13.0266 8.47774 12.7405 8.59626 12.5295 8.80724C12.3185 9.01822 12.2 9.30437 12.2 9.60274C12.2 9.90111 12.3185 10.1873 12.5295 10.3982C12.7405 10.6092 13.0266 10.7277 13.325 10.7277H15.2V19.3527H2.45001V10.7277H4.32501C4.62338 10.7277 4.90953 10.6092 5.12051 10.3982C5.33149 10.1873 5.45001 9.90111 5.45001 9.60274C5.45001 9.30437 5.33149 9.01822 5.12051 8.80724C4.90953 8.59626 4.62338 8.47774 4.32501 8.47774H2.07501C1.57849 8.4802 1.10301 8.67854 0.75191 9.02964C0.400812 9.38073 0.202476 9.85622 0.200012 10.3527V19.7277C0.202476 20.2243 0.400812 20.6997 0.75191 21.0508C1.10301 21.4019 1.57849 21.6003 2.07501 21.6027H15.575C16.0715 21.6003 16.547 21.4019 16.8981 21.0508C17.2492 20.6997 17.4475 20.2243 17.45 19.7277V10.3527C17.4475 9.85622 17.2492 9.38073 16.8981 9.02964C16.547 8.67854 16.0715 8.4802 15.575 8.47774Z" fill="#0077FF"/>
</svg>
