<svg width="24" height="24" viewBox="0 0 24 24" fill="none" xmlns="http://www.w3.org/2000/svg">
<path d="M5.18993 12.81C3.50579 10.213 2.45429 7.25717 2.11993 4.18001C2.09494 3.90347 2.12781 3.62477 2.21643 3.36163C2.30506 3.09849 2.4475 2.85669 2.6347 2.65163C2.82189 2.44656 3.04974 2.28271 3.30372 2.17053C3.55771 2.05834 3.83227 2.00027 4.10993 2.00001H7.10993C7.59524 1.99523 8.06572 2.16708 8.43369 2.48354C8.80166 2.79999 9.04201 3.23945 9.10993 3.72001C9.23656 4.68007 9.47138 5.62273 9.80993 6.53001C9.94448 6.88793 9.9736 7.27692 9.89384 7.65089C9.81408 8.02485 9.6288 8.36812 9.35993 8.64001L8.08993 9.91001M10.6799 13.31C11.6948 14.3258 12.8418 15.2003 14.0899 15.91L15.3599 14.64C15.6318 14.3711 15.9751 14.1859 16.3491 14.1061C16.723 14.0263 17.112 14.0555 17.4699 14.19C18.3772 14.5286 19.3199 14.7634 20.2799 14.89C20.7605 14.9579 21.1999 15.1983 21.5164 15.5662C21.8329 15.9342 22.0047 16.4047 21.9999 16.89V19.89C22.0011 20.1685 21.944 20.4442 21.8324 20.6994C21.7209 20.9545 21.5572 21.1836 21.352 21.3719C21.1468 21.5601 20.9045 21.7035 20.6407 21.7927C20.3769 21.8819 20.0973 21.9151 19.8199 21.89C16.7428 21.5556 13.7869 20.5041 11.1899 18.82C9.9852 18.0551 8.86846 17.1597 7.85993 16.15L10.6799 13.31Z" stroke="#0077FF" stroke-width="1.5" stroke-linecap="round" stroke-linejoin="round"/>
<path d="M23 1L1 23" stroke="#0077FF" stroke-width="1.5" stroke-linecap="round" stroke-linejoin="round"/>
</svg>
