<svg width="26" height="11" viewBox="0 0 26 11" fill="none" xmlns="http://www.w3.org/2000/svg">
<path d="M4.05299 9.96094L8.16305 8.50253C8.33831 8.43991 8.48237 8.31959 8.57353 8.15968C8.66469 7.99977 8.69803 7.80893 8.66852 7.61588L8.22769 4.70901C11.1766 3.78766 14.4642 3.96069 17.5267 5.19843L17.3903 8.07492C17.3806 8.26596 17.4341 8.46153 17.5427 8.63203C17.6513 8.80253 17.8091 8.93867 17.9921 9.01985L22.279 10.9202C22.4773 11.0067 22.6925 11.0241 22.8873 10.9694C23.0822 10.9147 23.2446 10.7913 23.3465 10.6205L25.269 7.37223C25.3667 7.20703 25.4018 7.00749 25.3684 6.80618C25.3351 6.60487 25.2353 6.41366 25.0853 6.26378C18.0004 -0.821098 7.10077 -1.38429 0.734313 4.98216C0.59925 5.11703 0.518996 5.29879 0.506654 5.49776C0.494313 5.69673 0.550615 5.90114 0.666364 6.07763L2.94236 9.54687C3.06381 9.72991 3.24115 9.87139 3.44386 9.94696C3.64657 10.0225 3.86197 10.0275 4.05299 9.96094Z" fill="white"/>
</svg>
