<svg width="18" height="22" viewBox="0 0 18 22" fill="none" xmlns="http://www.w3.org/2000/svg">
<path d="M4.09082 15.5383C3.98594 15.6428 3.90272 15.767 3.84594 15.9037C3.78916 16.0405 3.75993 16.1871 3.75993 16.3351C3.75993 16.4832 3.78916 16.6298 3.84594 16.7665C3.90272 16.9033 3.98594 17.0275 4.09082 17.132L8.02832 21.0695C8.13284 21.1744 8.25703 21.2576 8.39377 21.3144C8.53052 21.3712 8.67713 21.4004 8.8252 21.4004C8.97326 21.4004 9.11987 21.3712 9.25662 21.3144C9.39336 21.2576 9.51755 21.1744 9.62207 21.0695L13.5596 17.132C13.6645 17.0275 13.7477 16.9033 13.8044 16.7665C13.8612 16.6298 13.8905 16.4832 13.8905 16.3351C13.8905 16.1871 13.8612 16.0405 13.8044 15.9037C13.7477 15.767 13.6645 15.6428 13.5596 15.5383C13.3473 15.3287 13.061 15.2112 12.7627 15.2112C12.4644 15.2112 12.1781 15.3287 11.9658 15.5383L9.9502 17.5539V9.77263C9.9502 9.47426 9.83167 9.18811 9.62069 8.97713C9.40971 8.76616 9.12356 8.64763 8.8252 8.64763C8.52683 8.64763 8.24068 8.76616 8.0297 8.97713C7.81872 9.18811 7.7002 9.47426 7.7002 9.77263V17.5539L5.68457 15.5383C5.58005 15.4334 5.45586 15.3502 5.31912 15.2934C5.18237 15.2366 5.03576 15.2074 4.8877 15.2074C4.73963 15.2074 4.59302 15.2366 4.45627 15.2934C4.31953 15.3502 4.19534 15.4334 4.09082 15.5383ZM15.5752 13.5226H13.3252C13.0268 13.5226 12.7407 13.4041 12.5297 13.1931C12.3187 12.9821 12.2002 12.696 12.2002 12.3976C12.2002 12.0993 12.3187 11.8131 12.5297 11.6021C12.7407 11.3912 13.0268 11.2726 13.3252 11.2726H15.2002V2.64763H2.4502V11.2726H4.3252C4.62356 11.2726 4.90971 11.3912 5.12069 11.6021C5.33167 11.8131 5.4502 12.0993 5.4502 12.3976C5.4502 12.696 5.33167 12.9821 5.12069 13.1931C4.90971 13.4041 4.62356 13.5226 4.3252 13.5226H2.0752C1.57867 13.5202 1.10319 13.3218 0.752093 12.9707C0.400995 12.6196 0.202659 12.1442 0.200195 11.6476V2.27263C0.202659 1.77611 0.400995 1.30062 0.752093 0.949528C1.10319 0.598429 1.57867 0.400095 2.0752 0.397631H15.5752C16.0717 0.400095 16.5472 0.598429 16.8983 0.949528C17.2494 1.30062 17.4477 1.77611 17.4502 2.27263V11.6476C17.4477 12.1442 17.2494 12.6196 16.8983 12.9707C16.5472 13.3218 16.0717 13.5202 15.5752 13.5226Z" fill="#0077FF"/>
</svg>
