<svg width="20" height="20" viewBox="0 0 20 20" fill="none" xmlns="http://www.w3.org/2000/svg">
<path d="M5 8.33366V6.66699C5 3.90866 5.83333 1.66699 10 1.66699C14.1667 1.66699 15 3.90866 15 6.66699V8.33366" stroke="#C0C5CC" stroke-width="1.5" stroke-linecap="round" stroke-linejoin="round"/>
<path d="M10.0003 15.4167C11.1509 15.4167 12.0837 14.4839 12.0837 13.3333C12.0837 12.1827 11.1509 11.25 10.0003 11.25C8.84973 11.25 7.91699 12.1827 7.91699 13.3333C7.91699 14.4839 8.84973 15.4167 10.0003 15.4167Z" stroke="#C0C5CC" stroke-width="1.5" stroke-linecap="round" stroke-linejoin="round"/>
<path d="M14.167 18.333H5.83366C2.50033 18.333 1.66699 17.4997 1.66699 14.1663V12.4997C1.66699 9.16634 2.50033 8.33301 5.83366 8.33301H14.167C17.5003 8.33301 18.3337 9.16634 18.3337 12.4997V14.1663C18.3337 17.4997 17.5003 18.333 14.167 18.333Z" stroke="#C0C5CC" stroke-width="1.5" stroke-linecap="round" stroke-linejoin="round"/>
</svg>