<svg width="172" height="45" viewBox="0 0 172 45" fill="none" xmlns="http://www.w3.org/2000/svg">
<path d="M69 33.662V16.4225H72.5995V18.7887H72.7709C73.068 18.293 73.4565 17.8423 73.9365 17.4366C75.0335 16.5352 76.359 16.0845 77.9131 16.0845C79.7643 16.0845 81.2612 16.6254 82.4039 17.707C82.8839 18.1577 83.2724 18.6873 83.5695 19.2958H83.7409C84.0608 18.7099 84.5065 18.1803 85.0778 17.707C86.312 16.6254 87.866 16.0845 89.7401 16.0845C91.7741 16.0845 93.3624 16.7155 94.5051 17.9775C95.6707 19.2169 96.2535 21.0085 96.2535 23.3521V33.662H92.654V23.5211C92.654 20.7042 91.397 19.2958 88.883 19.2958C87.6718 19.2958 86.6205 19.769 85.7292 20.7155C84.8607 21.6394 84.4265 22.8 84.4265 24.1972V33.662H80.827V23.5211C80.827 20.7042 79.57 19.2958 77.0561 19.2958C75.8448 19.2958 74.7935 19.769 73.9022 20.7155C73.0337 21.6394 72.5995 22.8 72.5995 24.1972V33.662H69Z" fill="url(#paint0_linear_11_96)"/>
<path d="M100.715 31.431C99.0013 29.6958 98.1443 27.5662 98.1443 25.0423C98.1443 22.5183 99.0013 20.4 100.715 18.6873C102.452 16.9521 104.566 16.0845 107.057 16.0845C109.548 16.0845 111.651 16.9521 113.365 18.6873C115.102 20.4 115.97 22.5183 115.97 25.0423V26.2254H101.744C102.018 27.6451 102.647 28.7606 103.629 29.5718C104.612 30.3831 105.755 30.7887 107.057 30.7887C108.657 30.7887 109.937 30.3944 110.897 29.6056C111.331 29.2901 111.708 28.8958 112.028 28.4225H115.799C115.319 29.5268 114.714 30.462 113.982 31.2282C112.108 33.0761 109.8 34 107.057 34C104.566 34 102.452 33.1437 100.715 31.431ZM101.915 23.3521H112.2C111.994 22.2254 111.445 21.2676 110.554 20.4789C109.686 19.6901 108.52 19.2958 107.057 19.2958C105.823 19.2958 104.726 19.6676 103.766 20.4113C102.807 21.1324 102.189 22.1127 101.915 23.3521Z" fill="url(#paint1_linear_11_96)"/>
<path d="M119.504 31.4648C117.836 29.7746 117.002 27.6338 117.002 25.0423C117.002 22.4507 117.836 20.3099 119.504 18.6197C121.172 16.9296 123.252 16.0845 125.743 16.0845C128.531 16.0845 130.805 17.1324 132.565 19.2282C133.319 20.1972 133.845 21.2338 134.142 22.338H130.371C130.211 21.7746 129.914 21.2676 129.48 20.8169C128.589 19.8028 127.343 19.2958 125.743 19.2958C124.326 19.2958 123.138 19.8254 122.178 20.8845C121.241 21.9437 120.773 23.3296 120.773 25.0423C120.773 26.7549 121.241 28.1408 122.178 29.2C123.138 30.2592 124.326 30.7887 125.743 30.7887C127.389 30.7887 128.68 30.2817 129.617 29.2676C130.028 28.8169 130.337 28.3099 130.543 27.7465H134.142C133.845 28.8958 133.319 29.9437 132.565 30.8901C130.828 32.9634 128.554 34 125.743 34C123.252 34 121.172 33.1549 119.504 31.4648Z" fill="url(#paint2_linear_11_96)"/>
<path d="M137.32 31.5324C135.765 29.8648 134.988 27.7014 134.988 25.0423C134.988 22.3831 135.765 20.231 137.32 18.5859C138.897 16.9183 140.862 16.0845 143.216 16.0845C144.701 16.0845 146.061 16.5127 147.295 17.369C147.821 17.7296 148.29 18.1465 148.701 18.6197H148.872V16.4225H152.472V33.662H148.872V31.2958H148.701C148.358 31.769 147.89 32.2197 147.295 32.6479C146.061 33.5493 144.701 34 143.216 34C140.862 34 138.897 33.1775 137.32 31.5324ZM140.131 20.7831C139.216 21.7746 138.759 23.1944 138.759 25.0423C138.759 26.8901 139.216 28.3099 140.131 29.3014C141.045 30.293 142.302 30.7887 143.902 30.7887C145.41 30.7887 146.61 30.293 147.501 29.3014C148.415 28.2873 148.872 26.8676 148.872 25.0423C148.872 23.2169 148.415 21.8085 147.501 20.8169C146.61 19.8028 145.41 19.2958 143.902 19.2958C142.302 19.2958 141.045 19.7916 140.131 20.7831Z" fill="url(#paint3_linear_11_96)"/>
<path d="M155.544 33.662V10H159.143V30.4507H163.086V33.662H155.544Z" fill="url(#paint4_linear_11_96)"/>
<path d="M164.458 33.662V10H168.058V30.4507H172V33.662H164.458Z" fill="url(#paint5_linear_11_96)"/>
<path fill-rule="evenodd" clip-rule="evenodd" d="M3.8385 7.24105C7.05431 2.21926 14.008 3.02755 18.2246 7.24418L24.4087 13.4283L30.5929 7.24417C34.8095 3.02755 41.7631 2.21925 44.979 7.24104V7.24104L28.2442 23.9758C26.1259 26.0941 22.6915 26.0941 20.5733 23.9758L3.8385 7.24105V7.24105Z" fill="url(#paint6_linear_11_96)"/>
<path fill-rule="evenodd" clip-rule="evenodd" d="M18.2351 7.32878C13.9972 3.09087 7.00409 2.28436 3.7905 7.34327C1.39017 11.1219 0 15.6053 0 20.4133C0 33.8939 10.9281 44.822 24.4087 44.822C37.8893 44.822 48.8174 33.8939 48.8174 20.4133C48.8174 15.6053 47.4272 11.1219 45.0269 7.34326C41.8133 2.28436 34.8202 3.09087 30.5823 7.32878V7.32878C35.4828 9.64501 38.8731 14.6332 38.8731 20.4133C38.8731 28.4018 32.3972 34.8777 24.4087 34.8777C16.4202 34.8777 9.94429 28.4018 9.94429 20.4133C9.94429 14.6332 13.3346 9.64501 18.2351 7.32878V7.32878Z" fill="url(#paint7_linear_11_96)"/>
<defs>
<linearGradient id="paint0_linear_11_96" x1="120.5" y1="12.3804" x2="120.5" y2="55.8655" gradientUnits="userSpaceOnUse">
<stop stop-color="#0077FF"/>
<stop offset="0.552633" stop-color="#0077FF" stop-opacity="0.5"/>
</linearGradient>
<linearGradient id="paint1_linear_11_96" x1="120.5" y1="12.3804" x2="120.5" y2="55.8655" gradientUnits="userSpaceOnUse">
<stop stop-color="#0077FF"/>
<stop offset="0.552633" stop-color="#0077FF" stop-opacity="0.5"/>
</linearGradient>
<linearGradient id="paint2_linear_11_96" x1="120.5" y1="12.3804" x2="120.5" y2="55.8655" gradientUnits="userSpaceOnUse">
<stop stop-color="#0077FF"/>
<stop offset="0.552633" stop-color="#0077FF" stop-opacity="0.5"/>
</linearGradient>
<linearGradient id="paint3_linear_11_96" x1="120.5" y1="12.3804" x2="120.5" y2="55.8655" gradientUnits="userSpaceOnUse">
<stop stop-color="#0077FF"/>
<stop offset="0.552633" stop-color="#0077FF" stop-opacity="0.5"/>
</linearGradient>
<linearGradient id="paint4_linear_11_96" x1="120.5" y1="12.3804" x2="120.5" y2="55.8655" gradientUnits="userSpaceOnUse">
<stop stop-color="#0077FF"/>
<stop offset="0.552633" stop-color="#0077FF" stop-opacity="0.5"/>
</linearGradient>
<linearGradient id="paint5_linear_11_96" x1="120.5" y1="12.3804" x2="120.5" y2="55.8655" gradientUnits="userSpaceOnUse">
<stop stop-color="#0077FF"/>
<stop offset="0.552633" stop-color="#0077FF" stop-opacity="0.5"/>
</linearGradient>
<linearGradient id="paint6_linear_11_96" x1="24.4087" y1="-4.42803" x2="24.4087" y2="29.963" gradientUnits="userSpaceOnUse">
<stop stop-color="#0077FF"/>
<stop offset="1" stop-color="#0077FF" stop-opacity="0"/>
</linearGradient>
<linearGradient id="paint7_linear_11_96" x1="24.4086" y1="4.48684" x2="24.4086" y2="85.6161" gradientUnits="userSpaceOnUse">
<stop stop-color="#0077FF"/>
<stop offset="0.552633" stop-color="#0077FF" stop-opacity="0.5"/>
</linearGradient>
</defs>
</svg>
