<svg width="2855" height="675" viewBox="0 0 2855 675" fill="none" xmlns="http://www.w3.org/2000/svg">
<path d="M2.26498e-06 665V180.5H99.75V247H104.5C112.733 233.067 123.5 220.4 136.8 209C167.2 183.667 203.933 171 247 171C298.3 171 339.783 186.2 371.45 216.6C384.75 229.267 395.517 244.15 403.75 261.25H408.5C417.367 244.783 429.717 229.9 445.55 216.6C479.75 186.2 522.817 171 574.75 171C631.117 171 675.133 188.733 706.8 224.2C739.1 259.033 755.25 309.383 755.25 375.25V665H655.5V380C655.5 300.833 620.667 261.25 551 261.25C517.433 261.25 488.3 274.55 463.6 301.15C439.533 327.117 427.5 359.733 427.5 399V665H327.75V380C327.75 300.833 292.917 261.25 223.25 261.25C189.683 261.25 160.55 274.55 135.85 301.15C111.783 327.117 99.75 359.733 99.75 399V665H2.26498e-06ZM878.898 602.3C831.398 553.533 807.648 493.683 807.648 422.75C807.648 351.817 831.398 292.283 878.898 244.15C927.032 195.383 985.615 171 1054.65 171C1123.68 171 1181.95 195.383 1229.45 244.15C1277.58 292.283 1301.65 351.817 1301.65 422.75V456H907.398C914.998 495.9 932.415 527.25 959.648 550.05C986.882 572.85 1018.55 584.25 1054.65 584.25C1098.98 584.25 1134.45 573.167 1161.05 551C1173.08 542.133 1183.53 531.05 1192.4 517.75H1296.9C1283.6 548.783 1266.82 575.067 1246.55 596.6C1194.62 648.533 1130.65 674.5 1054.65 674.5C985.615 674.5 927.032 650.433 878.898 602.3ZM912.148 375.25H1197.15C1191.45 343.583 1176.25 316.667 1151.55 294.5C1127.48 272.333 1095.18 261.25 1054.65 261.25C1020.45 261.25 990.048 271.7 963.448 292.6C936.848 312.867 919.748 340.417 912.148 375.25ZM1399.57 603.25C1353.34 555.75 1330.22 495.583 1330.22 422.75C1330.22 349.917 1353.34 289.75 1399.57 242.25C1445.81 194.75 1503.44 171 1572.47 171C1649.74 171 1712.76 200.45 1761.52 259.35C1782.42 286.583 1796.99 315.717 1805.22 346.75H1700.72C1696.29 330.917 1688.06 316.667 1676.02 304C1651.32 275.5 1616.81 261.25 1572.47 261.25C1533.21 261.25 1500.27 276.133 1473.67 305.9C1447.71 335.667 1434.72 374.617 1434.72 422.75C1434.72 470.883 1447.71 509.833 1473.67 539.6C1500.27 569.367 1533.21 584.25 1572.47 584.25C1618.07 584.25 1653.86 570 1679.82 541.5C1691.22 528.833 1699.77 514.583 1705.47 498.75H1805.22C1796.99 531.05 1782.42 560.5 1761.52 587.1C1713.39 645.367 1650.37 674.5 1572.47 674.5C1503.44 674.5 1445.81 650.75 1399.57 603.25ZM1893.28 605.15C1850.21 558.283 1828.68 497.483 1828.68 422.75C1828.68 348.017 1850.21 287.533 1893.28 241.3C1936.98 194.433 1991.44 171 2056.68 171C2097.84 171 2135.53 183.033 2169.73 207.1C2184.29 217.233 2197.28 228.95 2208.68 242.25H2213.43V180.5H2313.18V665H2213.43V598.5H2208.68C2199.18 611.8 2186.19 624.467 2169.73 636.5C2135.53 661.833 2097.84 674.5 2056.68 674.5C1991.44 674.5 1936.98 651.383 1893.28 605.15ZM1971.18 303.05C1945.84 330.917 1933.18 370.817 1933.18 422.75C1933.18 474.683 1945.84 514.583 1971.18 542.45C1996.51 570.317 2031.34 584.25 2075.68 584.25C2117.48 584.25 2150.73 570.317 2175.43 542.45C2200.76 513.95 2213.43 474.05 2213.43 422.75C2213.43 371.45 2200.76 331.867 2175.43 304C2150.73 275.5 2117.48 261.25 2075.68 261.25C2031.34 261.25 1996.51 275.183 1971.18 303.05ZM2398.3 665V-4.52995e-05H2498.05V574.75H2607.3V665H2398.3ZM2645.34 665V-4.52995e-05H2745.09V574.75H2854.34V665H2645.34Z" fill="url(#paint0_linear_17_14)"/>
<defs>
<linearGradient id="paint0_linear_17_14" x1="1623" y1="-116.401" x2="1623" y2="2104.96" gradientUnits="userSpaceOnUse">
<stop stop-color="#0077FF"/>
<stop offset="0.552633" stop-color="#0077FF" stop-opacity="0.5"/>
</linearGradient>
</defs>
</svg>
