<svg width="30" height="30" viewBox="0 0 30 30" fill="none" xmlns="http://www.w3.org/2000/svg">
<path d="M15.765 11.985C15.765 9.51 13.74 7.485 11.265 7.485C8.79 7.485 6.765 9.51 6.765 11.985C6.765 14.46 8.79 16.485 11.265 16.485C13.74 16.485 15.765 14.46 15.765 11.985ZM11.265 13.485C10.44 13.485 9.765 12.81 9.765 11.985C9.765 11.16 10.44 10.485 11.265 10.485C12.09 10.485 12.765 11.16 12.765 11.985C12.765 12.81 12.09 13.485 11.265 13.485ZM21.015 16.485C22.68 16.485 24.015 15.15 24.015 13.485C24.015 11.82 22.68 10.485 21.015 10.485C19.35 10.485 18 11.82 18.015 13.485C18.015 15.15 19.35 16.485 21.015 16.485ZM15 0C6.72 0 0 6.72 0 15C0 23.28 6.72 30 15 30C23.28 30 30 23.28 30 15C30 6.72 23.28 0 15 0ZM5.775 22.665C6.795 21.855 9.18 21 11.265 21C11.37 21 11.49 21.015 11.61 21.015C11.97 20.055 12.615 19.08 13.56 18.225C12.72 18.075 11.925 17.985 11.265 17.985C9.315 17.985 6.18 18.66 4.17 20.13C3.42 18.57 3 16.83 3 14.985C3 8.37 8.385 2.985 15 2.985C21.615 2.985 27 8.37 27 14.985C27 16.785 26.595 18.495 25.875 20.04C24.375 19.155 22.335 18.735 21.015 18.735C18.735 18.735 14.265 19.95 14.265 22.785V26.955C10.86 26.76 7.83 25.14 5.775 22.665Z" fill="#0077FF"/>
</svg>
