<svg width="30" height="25" viewBox="0 0 30 25" fill="none" xmlns="http://www.w3.org/2000/svg">
<path d="M27.5 0H2.5C1.125 0 0 1.25 0 2.77778V22.2222C0 23.75 1.125 25 2.5 25H27.5C28.875 25 29.9875 23.75 29.9875 22.2222L30 2.77778C30 1.25 28.875 0 27.5 0ZM27.5 22.2222H2.5V2.77778H27.5V22.2222ZM23.7625 20.8194L26.25 18.0556L24.3625 15.2778H22.3125C22.0375 14.4028 21.875 13.4722 21.875 12.5C21.875 11.5278 22.0375 10.5972 22.3125 9.72222H24.3625L26.25 6.94444L23.7625 4.18056C22.125 5.54167 20.9125 7.47222 20.35 9.72222C20.125 10.6111 20 11.5417 20 12.5C20 13.4583 20.125 14.3889 20.35 15.2778C20.9125 17.5139 22.125 19.4583 23.7625 20.8194ZM11.25 12.5C13.3125 12.5 15 10.625 15 8.33333C15 6.04167 13.3125 4.16667 11.25 4.16667C9.1875 4.16667 7.5 6.04167 7.5 8.33333C7.5 10.625 9.1875 12.5 11.25 12.5ZM11.25 6.94444C11.9375 6.94444 12.5 7.56944 12.5 8.33333C12.5 9.09722 11.9375 9.72222 11.25 9.72222C10.5625 9.72222 10 9.09722 10 8.33333C10 7.56944 10.5625 6.94444 11.25 6.94444ZM18.75 18.875C18.75 15.4028 13.7875 13.9028 11.25 13.9028C8.7125 13.9028 3.75 15.4028 3.75 18.875V20.8333H18.75V18.875ZM6.85 18.0556C7.775 17.3611 9.625 16.6667 11.25 16.6667C12.875 16.6667 14.7125 17.3472 15.65 18.0556H6.85Z" fill="#0077FF"/>
</svg>
