<svg width="239" height="69" viewBox="0 0 339 69" fill="none" xmlns="http://www.w3.org/2000/svg">
<path d="M183.039 1.12496C183.949 1.57589 185.302 2.50348 185.865 2.91091C192.784 7.40438 207.031 16.4897 208.77 17.6176C211.438 19.3477 211.872 19.8759 213.219 21.9427C214.107 23.3038 214.351 31.5527 214.561 35.4888L168.031 5.67651L176.405 0.82643C179.425 -0.922505 181.903 0.561242 183.039 1.12496Z" fill="url(#paint0_linear_227_1241)"/>
<path d="M201.41 67.8756C200.5 67.4244 199.146 66.4969 198.584 66.0893C191.665 61.5962 177.418 52.5106 175.678 51.3828C173.01 49.6525 172.576 49.1242 171.229 47.0576C170.342 45.6965 170.097 37.4474 169.887 33.5112L216.417 63.324L208.043 68.1741C205.023 69.9231 202.545 68.4393 201.41 67.8756Z" fill="url(#paint1_linear_227_1241)"/>
<g filter="url(#filter0_i_227_1241)">
<path d="M200.368 19.76C196.672 10.9422 189.336 5.26021 185.883 2.91699C192.641 7.24884 206.812 16.3379 209.42 18.0396C212.681 20.1666 213.413 21.9265 213.729 23.5749C214.046 25.2232 214.655 36.776 214.822 38.652C214.989 40.528 214.61 41.945 213.504 42.5853L203.339 48.4728C202.494 39.2578 202.193 24.1123 200.368 19.76Z" fill="url(#paint2_radial_227_1241)"/>
</g>
<path d="M200.595 19.6644C198.108 13.7326 193.99 9.2135 190.496 6.16504C197.674 10.7679 207.197 16.8811 209.288 18.2449C210.9 19.2966 211.871 20.2476 212.478 21.1262C213.084 22.0017 213.336 22.8187 213.49 23.6209C213.566 24.0162 213.662 25.031 213.767 26.3809C213.871 27.7233 213.982 29.3793 214.089 31.0434C214.162 32.1893 214.233 33.3401 214.298 34.3947C214.422 36.399 214.525 38.0563 214.579 38.6735C214.744 40.5292 214.357 41.8083 213.383 42.3724L203.55 48.068C203.317 45.4441 203.125 42.3778 202.928 39.2281C202.783 36.9075 202.635 34.5416 202.466 32.2743C202.261 29.5315 202.026 26.9364 201.727 24.7529C201.428 22.5763 201.064 20.7851 200.595 19.6644Z" stroke="url(#paint3_linear_227_1241)" stroke-width="0.429185"/>
<g filter="url(#filter1_i_227_1241)">
<path d="M184.081 49.2394C187.778 58.0573 195.114 63.7396 198.567 66.0827C191.808 61.7511 177.638 52.6617 175.029 50.9599C171.769 48.8329 171.037 47.0731 170.72 45.4248C170.404 43.7765 169.794 32.2234 169.628 30.3474C169.461 28.4714 169.839 27.0546 170.945 26.4139L181.11 20.5264C181.956 29.7416 182.257 44.8872 184.081 49.2394Z" fill="url(#paint4_radial_227_1241)"/>
</g>
<path d="M183.855 49.3353C186.342 55.267 190.46 59.786 193.954 62.8346C186.777 58.2321 177.253 52.1187 175.163 50.7547C173.55 49.703 172.579 48.752 171.971 47.8736C171.367 46.9982 171.114 46.1812 170.96 45.3789C170.884 44.9836 170.788 43.9688 170.683 42.619C170.579 41.2767 170.468 39.6205 170.362 37.9566C170.288 36.8107 170.217 35.66 170.152 34.6054C170.028 32.601 169.926 30.9438 169.871 30.3266C169.706 28.471 170.093 27.1918 171.067 26.6276L180.901 20.9321C181.133 23.5563 181.325 26.6226 181.522 29.772C181.667 32.0926 181.815 34.4584 181.984 36.7257C182.189 39.4683 182.425 42.0637 182.724 44.2471C183.022 46.4237 183.386 48.2149 183.855 49.3353Z" stroke="url(#paint5_linear_227_1241)" stroke-width="0.429185"/>
<g filter="url(#filter2_ii_227_1241)">
<path d="M231.786 24.5855C232.412 23.6219 233.196 22.8677 234.135 22.3231C235.075 21.7574 236.119 21.4746 237.268 21.4746V27.1622H235.795C234.459 27.1622 233.456 27.4555 232.788 28.042C232.12 28.6076 231.786 29.6132 231.786 31.0586V39.1972H226.43V21.6632H231.786V24.5855ZM249.569 34.6409V39.1972H246.844C244.902 39.1972 243.388 38.7258 242.302 37.7832C241.216 36.8195 240.674 35.2588 240.674 33.1011V26.1252H238.544V21.6632H240.674V17.3896H246.03V21.6632H249.538V26.1252H246.03V33.164C246.03 33.6877 246.155 34.0647 246.406 34.2952C246.656 34.5256 247.074 34.6409 247.659 34.6409H249.569ZM269.029 30.1474C269.029 30.6501 268.998 31.1738 268.935 31.7185H256.813C256.897 32.8078 257.241 33.6458 257.847 34.2324C258.473 34.798 259.235 35.0808 260.133 35.0808C261.47 35.0808 262.399 34.5152 262.921 33.3839H268.622C268.33 34.5361 267.797 35.573 267.025 36.4948C266.273 37.4165 265.323 38.1393 264.174 38.663C263.025 39.1867 261.741 39.4486 260.321 39.4486C258.609 39.4486 257.085 39.082 255.748 38.3488C254.411 37.6155 253.367 36.5681 252.616 35.2065C251.864 33.8448 251.488 32.2527 251.488 30.4302C251.488 28.6076 251.854 27.0155 252.584 25.6539C253.336 24.2922 254.38 23.2448 255.717 22.5116C257.053 21.7784 258.588 21.4118 260.321 21.4118C262.013 21.4118 263.516 21.7679 264.832 22.4802C266.148 23.1924 267.171 24.2084 267.902 25.5282C268.653 26.848 269.029 28.3877 269.029 30.1474ZM263.548 28.7333C263.548 27.8116 263.234 27.0784 262.608 26.5337C261.981 25.989 261.198 25.7167 260.259 25.7167C259.361 25.7167 258.599 25.9786 257.972 26.5023C257.367 27.026 256.991 27.7697 256.844 28.7333H263.548ZM270.79 30.4302C270.79 28.6076 271.155 27.0155 271.887 25.6539C272.638 24.2922 273.672 23.2448 274.988 22.5116C276.324 21.7784 277.848 21.4118 279.561 21.4118C281.753 21.4118 283.581 21.9879 285.042 23.1401C286.525 24.2922 287.496 25.9157 287.956 28.0106H282.255C281.774 26.6699 280.845 25.9995 279.467 25.9995C278.485 25.9995 277.702 26.3871 277.118 27.1622C276.533 27.9163 276.241 29.0056 276.241 30.4302C276.241 31.8547 276.533 32.9545 277.118 33.7296C277.702 34.4837 278.485 34.8608 279.467 34.8608C280.845 34.8608 281.774 34.1904 282.255 32.8497H287.956C287.496 34.9027 286.525 36.5157 285.042 37.6889C283.559 38.862 281.732 39.4486 279.561 39.4486C277.848 39.4486 276.324 39.082 274.988 38.3488C273.672 37.6155 272.638 36.5681 271.887 35.2065C271.155 33.8448 270.79 32.2527 270.79 30.4302ZM298.777 39.4486C297.064 39.4486 295.519 39.082 294.141 38.3488C292.783 37.6155 291.708 36.5681 290.915 35.2065C290.142 33.8448 289.756 32.2527 289.756 30.4302C289.756 28.6286 290.152 27.047 290.945 25.6853C291.739 24.3027 292.825 23.2448 294.204 22.5116C295.582 21.7784 297.127 21.4118 298.84 21.4118C300.552 21.4118 302.097 21.7784 303.475 22.5116C304.854 23.2448 305.939 24.3027 306.733 25.6853C307.526 27.047 307.923 28.6286 307.923 30.4302C307.923 32.2317 307.516 33.8239 306.702 35.2065C305.908 36.5681 304.812 37.6155 303.413 38.3488C302.035 39.082 300.489 39.4486 298.777 39.4486ZM298.777 34.798C299.8 34.798 300.667 34.4209 301.377 33.6667C302.107 32.9126 302.473 31.8337 302.473 30.4302C302.473 29.0266 302.118 27.9478 301.408 27.1936C300.719 26.4395 299.862 26.0624 298.84 26.0624C297.795 26.0624 296.929 26.4395 296.24 27.1936C295.551 27.9268 295.206 29.0056 295.206 30.4302C295.206 31.8337 295.54 32.9126 296.208 33.6667C296.897 34.4209 297.753 34.798 298.777 34.798Z" fill="#5833A2"/>
</g>
<path d="M230.89 53.8758V55.7114H230.301V54.4189H226.621V49.5102H227.238V53.8689H229.684V49.5102H230.294V53.8758H230.89ZM233.351 49.5102H233.927V52.2052C233.927 52.3196 233.924 52.4458 233.92 52.5833C233.92 52.7164 233.918 52.849 233.913 52.9821C233.909 53.1151 233.902 53.234 233.893 53.3396C233.888 53.4402 233.883 53.5183 233.879 53.5733H233.906L236.599 49.5102H237.284V54.4189H236.709V51.7514C236.709 51.6277 236.711 51.4946 236.716 51.3527C236.72 51.2059 236.725 51.0664 236.729 50.9333C236.739 50.7958 236.745 50.6745 236.75 50.5689C236.754 50.4634 236.759 50.3858 236.764 50.3352H236.736L234.036 54.4189H233.351V49.5102ZM242.64 49.4414V50.0464C243.17 50.0558 243.588 50.1427 243.894 50.3077C244.199 50.4727 244.417 50.6927 244.545 50.9677C244.672 51.2383 244.736 51.5408 244.736 51.8752C244.736 52.0952 244.702 52.3152 244.634 52.5352C244.57 52.7508 244.458 52.9477 244.298 53.1264C244.138 53.3008 243.923 53.4427 243.654 53.5527C243.384 53.6627 243.046 53.7221 242.64 53.7314V54.4877H242.03V53.7314C241.614 53.7221 241.269 53.6627 240.995 53.5527C240.726 53.4383 240.513 53.2914 240.358 53.1127C240.203 52.9295 240.093 52.7301 240.029 52.5146C239.965 52.299 239.933 52.0859 239.933 51.8752C239.933 51.6321 239.967 51.4033 240.036 51.1877C240.109 50.9677 240.225 50.7752 240.385 50.6102C240.55 50.4408 240.767 50.3052 241.036 50.2046C241.306 50.1039 241.637 50.0509 242.03 50.0464V49.4414H242.64ZM242.03 50.5689C241.664 50.5783 241.372 50.6377 241.153 50.7477C240.938 50.8577 240.785 51.0089 240.694 51.2014C240.602 51.3895 240.557 51.6115 240.557 51.8683C240.557 52.1389 240.607 52.3746 240.707 52.5764C240.813 52.7734 240.972 52.9271 241.187 53.0371C241.406 53.1471 241.687 53.2089 242.03 53.2227V50.5689ZM242.64 53.2227C242.992 53.2089 243.274 53.1446 243.489 53.0302C243.709 52.9158 243.866 52.7596 243.962 52.5627C244.062 52.3609 244.113 52.1296 244.113 51.8683C244.113 51.6071 244.067 51.3826 243.976 51.1946C243.884 51.0021 243.732 50.8533 243.517 50.7477C243.302 50.6377 243.01 50.5783 242.64 50.5689V53.2227ZM248.695 49.5102C249.335 49.5102 249.801 49.6364 250.093 49.8883C250.385 50.1402 250.531 50.4958 250.531 50.9539C250.531 51.1558 250.497 51.3502 250.428 51.5383C250.364 51.7215 250.257 51.8865 250.106 52.0333C249.956 52.1801 249.755 52.297 249.503 52.3839C249.252 52.4664 248.944 52.5077 248.578 52.5077H248.017V54.4189H247.4V49.5102H248.695ZM248.64 50.0396H248.017V51.9783H248.51C248.821 51.9783 249.079 51.9464 249.284 51.8821C249.49 51.8133 249.643 51.7058 249.743 51.5589C249.844 51.4121 249.894 51.2196 249.894 50.9814C249.894 50.6652 249.794 50.429 249.593 50.2733C249.391 50.1176 249.074 50.0396 248.64 50.0396ZM257.462 51.9577C257.462 52.3383 257.414 52.684 257.318 52.9958C257.222 53.3027 257.078 53.5689 256.887 53.7933C256.699 54.0177 256.464 54.1896 256.181 54.3089C255.902 54.4283 255.578 54.4877 255.208 54.4877C254.824 54.4877 254.49 54.4283 254.207 54.3089C253.924 54.1852 253.689 54.0133 253.502 53.7933C253.314 53.5689 253.175 53.3008 253.084 52.9889C252.992 52.6771 252.947 52.3314 252.947 51.9508C252.947 51.4465 253.029 51.0065 253.193 50.6308C253.358 50.2551 253.606 49.9615 253.94 49.7508C254.278 49.5402 254.703 49.4346 255.215 49.4346C255.703 49.4346 256.114 49.5402 256.448 49.7508C256.781 49.9571 257.032 50.2502 257.202 50.6308C257.375 51.0065 257.462 51.4489 257.462 51.9577ZM253.598 51.9577C253.598 52.3702 253.654 52.7252 253.769 53.0233C253.883 53.3214 254.059 53.5502 254.296 53.7108C254.538 53.8714 254.842 53.9514 255.208 53.9514C255.578 53.9514 255.879 53.8714 256.112 53.7108C256.35 53.5502 256.525 53.3214 256.64 53.0233C256.754 52.7252 256.811 52.3702 256.811 51.9577C256.811 51.3389 256.683 50.8552 256.427 50.5071C256.171 50.154 255.767 49.9777 255.215 49.9777C254.845 49.9777 254.538 50.0577 254.296 50.2183C254.059 50.374 253.883 50.6009 253.769 50.8989C253.654 51.1921 253.598 51.5452 253.598 51.9577ZM261.588 49.5102C261.995 49.5102 262.335 49.549 262.609 49.6271C262.888 49.7051 263.096 49.8333 263.233 50.0121C263.374 50.1908 263.445 50.429 263.445 50.7271C263.445 50.9196 263.409 51.0914 263.336 51.2427C263.267 51.3895 263.162 51.5133 263.021 51.6139C262.884 51.7102 262.715 51.7765 262.513 51.8133V51.8477C262.719 51.8796 262.904 51.9395 263.069 52.0264C263.237 52.1134 263.37 52.2371 263.466 52.3977C263.562 52.5583 263.61 52.7665 263.61 53.0233C263.61 53.3214 263.541 53.5758 263.404 53.7864C263.267 53.9927 263.071 54.1508 262.815 54.2608C262.564 54.3664 262.262 54.4189 261.911 54.4189H260.191V49.5102H261.588ZM261.712 51.6002C262.132 51.6002 262.42 51.5339 262.575 51.4008C262.73 51.2633 262.808 51.0615 262.808 50.7958C262.808 50.5252 262.712 50.3327 262.52 50.2183C262.333 50.099 262.031 50.0396 261.616 50.0396H260.807V51.6002H261.712ZM260.807 52.1158V53.8964H261.794C262.228 53.8964 262.53 53.8115 262.698 53.6421C262.867 53.4726 262.952 53.2502 262.952 52.9752C262.952 52.8009 262.913 52.6496 262.836 52.5214C262.763 52.3933 262.637 52.2946 262.459 52.2258C262.285 52.1526 262.048 52.1158 261.746 52.1158H260.807ZM269.362 54.4189L268.772 52.8996H266.833L266.251 54.4189H265.627L267.539 49.4896H268.094L269.999 54.4189H269.362ZM268.039 50.8646C268.025 50.8277 268.002 50.7614 267.971 50.6652C267.938 50.5689 267.907 50.4702 267.875 50.3696C267.847 50.264 267.824 50.1839 267.806 50.1289C267.783 50.2208 267.758 50.3146 267.731 50.4108C267.708 50.5026 267.683 50.5871 267.655 50.6652C267.632 50.7433 267.612 50.8096 267.594 50.8646L267.039 52.3496H268.587L268.039 50.8646ZM273.786 52.3839L272.518 54.4189H271.798L273.169 52.2739C272.995 52.2145 272.831 52.132 272.676 52.0264C272.525 51.9209 272.401 51.7765 272.306 51.5933C272.21 51.4101 272.162 51.1739 272.162 50.8852C272.162 50.4408 272.315 50.1014 272.621 49.8677C272.927 49.6295 273.384 49.5102 273.991 49.5102H275.362V54.4189H274.745V52.3839H273.786ZM274.005 50.0396C273.744 50.0396 273.525 50.0695 273.347 50.1289C273.169 50.1884 273.032 50.2826 272.936 50.4108C272.844 50.539 272.799 50.7064 272.799 50.9127C272.799 51.2152 272.899 51.4489 273.1 51.6139C273.302 51.7789 273.612 51.8614 274.032 51.8614H274.745V50.0396H274.005ZM283.099 49.5102C283.739 49.5102 284.205 49.6364 284.497 49.8883C284.789 50.1402 284.936 50.4958 284.936 50.9539C284.936 51.1558 284.902 51.3502 284.833 51.5383C284.769 51.7215 284.662 51.8865 284.511 52.0333C284.36 52.1801 284.159 52.297 283.908 52.3839C283.656 52.4664 283.348 52.5077 282.983 52.5077H282.421V54.4189H281.804V49.5102H283.099ZM283.045 50.0396H282.421V51.9783H282.914C283.225 51.9783 283.483 51.9464 283.689 51.8821C283.894 51.8133 284.047 51.7058 284.148 51.5589C284.248 51.4121 284.299 51.2196 284.299 50.9814C284.299 50.6652 284.198 50.429 283.997 50.2733C283.796 50.1176 283.478 50.0396 283.045 50.0396ZM290.326 54.4189L289.737 52.8996H287.798L287.215 54.4189H286.592L288.503 49.4896H289.058L290.963 54.4189H290.326ZM289.003 50.8646C288.99 50.8277 288.967 50.7614 288.935 50.6652C288.903 50.5689 288.871 50.4702 288.839 50.3696C288.812 50.264 288.789 50.1839 288.77 50.1289C288.747 50.2208 288.723 50.3146 288.695 50.4108C288.672 50.5026 288.647 50.5871 288.62 50.6652C288.597 50.7433 288.576 50.8096 288.558 50.8646L288.003 52.3496H289.552L289.003 50.8646ZM296.168 50.6583C296.168 50.9927 296.063 51.2589 295.853 51.4558C295.643 51.6483 295.362 51.7721 295.01 51.8271V51.8546C295.421 51.9096 295.735 52.0377 295.949 52.2396C296.164 52.4414 296.271 52.7046 296.271 53.0302C296.271 53.3189 296.198 53.5733 296.052 53.7933C295.906 54.0089 295.687 54.1783 295.394 54.302C295.102 54.4258 294.736 54.4877 294.298 54.4877C294.033 54.4877 293.779 54.4671 293.537 54.4258C293.3 54.389 293.078 54.3202 292.872 54.2195V53.6558C293.014 53.7246 293.165 53.784 293.325 53.8346C293.489 53.8802 293.654 53.9171 293.818 53.9446C293.982 53.9676 294.14 53.9789 294.291 53.9789C294.729 53.9789 295.061 53.8964 295.284 53.7314C295.513 53.5664 295.627 53.3327 295.627 53.0302C295.627 52.7184 295.495 52.4915 295.23 52.3496C294.965 52.2076 294.595 52.1364 294.119 52.1364H293.421V51.6208H294.085C294.41 51.6208 294.677 51.584 294.887 51.5108C295.102 51.4376 295.262 51.3345 295.367 51.2014C295.476 51.0639 295.531 50.9034 295.531 50.7202C295.531 50.4727 295.44 50.2826 295.257 50.1496C295.074 50.0165 294.837 49.9502 294.544 49.9502C294.238 49.9502 293.982 49.989 293.777 50.0671C293.576 50.1451 293.379 50.2458 293.188 50.3696L292.893 49.9502C293.021 49.8539 293.167 49.769 293.331 49.6958C293.501 49.6177 293.688 49.5559 293.893 49.5102C294.099 49.4645 294.318 49.4414 294.551 49.4414C294.903 49.4414 295.198 49.494 295.435 49.5996C295.677 49.7051 295.86 49.8495 295.983 50.0327C296.107 50.2114 296.168 50.4201 296.168 50.6583ZM300.245 49.5102C300.884 49.5102 301.35 49.6364 301.643 49.8883C301.935 50.1402 302.081 50.4958 302.081 50.9539C302.081 51.1558 302.047 51.3502 301.978 51.5383C301.914 51.7215 301.807 51.8865 301.656 52.0333C301.505 52.1801 301.304 52.297 301.053 52.3839C300.802 52.4664 300.494 52.5077 300.128 52.5077H299.566V54.4189H298.95V49.5102H300.245ZM300.19 50.0396H299.566V51.9783H300.06C300.37 51.9783 300.628 51.9464 300.834 51.8821C301.04 51.8133 301.193 51.7058 301.293 51.5589C301.393 51.4121 301.444 51.2196 301.444 50.9814C301.444 50.6652 301.343 50.429 301.142 50.2733C300.941 50.1176 300.624 50.0396 300.19 50.0396ZM307.471 54.4189L306.882 52.8996H304.943L304.36 54.4189H303.737L305.648 49.4896H306.204L308.108 54.4189H307.471ZM306.149 50.8646C306.135 50.8277 306.112 50.7614 306.08 50.6652C306.048 50.5689 306.017 50.4702 305.984 50.3696C305.957 50.264 305.934 50.1839 305.916 50.1289C305.893 50.2208 305.868 50.3146 305.84 50.4108C305.818 50.5026 305.792 50.5871 305.765 50.6652C305.742 50.7433 305.722 50.8096 305.703 50.8646L305.148 52.3496H306.697L306.149 50.8646ZM310.422 54.4189V49.5102H313.328V50.0533H311.039V51.5864H311.765C312.254 51.5864 312.633 51.6483 312.903 51.7721C313.172 51.8914 313.359 52.0564 313.465 52.2671C313.569 52.4733 313.622 52.7115 313.622 52.9821C313.622 53.2801 313.563 53.5365 313.444 53.7521C313.33 53.9676 313.143 54.1326 312.882 54.247C312.622 54.3615 312.279 54.4189 311.854 54.4189H310.422ZM311.793 53.8896C312.231 53.8896 312.54 53.8164 312.718 53.6696C312.896 53.5183 312.985 53.289 312.985 52.9821C312.985 52.7714 312.941 52.6039 312.855 52.4802C312.773 52.352 312.636 52.2602 312.444 52.2052C312.256 52.1502 312.005 52.1227 311.69 52.1227H311.039V53.8896H311.793ZM320.551 51.9577C320.551 52.3383 320.503 52.684 320.407 52.9958C320.311 53.3027 320.167 53.5689 319.976 53.7933C319.788 54.0177 319.553 54.1896 319.27 54.3089C318.991 54.4283 318.667 54.4877 318.297 54.4877C317.913 54.4877 317.58 54.4283 317.296 54.3089C317.013 54.1852 316.778 54.0133 316.591 53.7933C316.403 53.5689 316.264 53.3008 316.173 52.9889C316.081 52.6771 316.036 52.3314 316.036 51.9508C316.036 51.4465 316.118 51.0065 316.282 50.6308C316.447 50.2551 316.696 49.9615 317.029 49.7508C317.367 49.5402 317.792 49.4346 318.304 49.4346C318.793 49.4346 319.204 49.5402 319.537 49.7508C319.87 49.9571 320.122 50.2502 320.291 50.6308C320.465 51.0065 320.551 51.4489 320.551 51.9577ZM316.687 51.9577C316.687 52.3702 316.744 52.7252 316.858 53.0233C316.972 53.3214 317.148 53.5502 317.386 53.7108C317.628 53.8714 317.931 53.9514 318.297 53.9514C318.667 53.9514 318.968 53.8714 319.201 53.7108C319.439 53.5502 319.615 53.3214 319.729 53.0233C319.843 52.7252 319.9 52.3702 319.9 51.9577C319.9 51.3389 319.772 50.8552 319.517 50.5071C319.261 50.154 318.856 49.9777 318.304 49.9777C317.934 49.9777 317.628 50.0577 317.386 50.2183C317.148 50.374 316.972 50.6009 316.858 50.8989C316.744 51.1921 316.687 51.5452 316.687 51.9577ZM324.621 54.4189H324.005V50.0533H322.477V49.5102H326.142V50.0533H324.621V54.4189ZM332.094 54.4189H331.354L329.141 51.9302V54.4189H328.524V49.5102H329.141V51.8889L331.3 49.5102H331.998L329.874 51.8958L332.094 54.4189ZM337.474 54.4189L336.885 52.8996H334.946L334.363 54.4189H333.74L335.652 49.4896H336.207L338.111 54.4189H337.474ZM336.152 50.8646C336.138 50.8277 336.116 50.7614 336.083 50.6652C336.051 50.5689 336.02 50.4702 335.987 50.3696C335.96 50.264 335.937 50.1839 335.919 50.1289C335.896 50.2208 335.871 50.3146 335.843 50.4108C335.821 50.5026 335.795 50.5871 335.768 50.6652C335.746 50.7433 335.725 50.8096 335.706 50.8646L335.151 52.3496H336.7L336.152 50.8646Z" fill="#592DA6"/>
<path d="M2.22006 29.3108C3.31638 29.3108 4.11514 29.5268 4.61631 29.9589C5.11749 30.391 5.36808 30.9998 5.36808 31.7854C5.36808 32.1311 5.30935 32.4649 5.19188 32.787C5.08225 33.1013 4.89822 33.3841 4.6398 33.6355C4.38139 33.8869 4.03683 34.0872 3.60613 34.2364C3.17543 34.3779 2.64684 34.4486 2.02037 34.4486H1.05717V37.7245H0V29.3108H2.22006ZM2.12609 30.2181H1.05717V33.5412H1.90291C2.43541 33.5412 2.87785 33.4862 3.23024 33.3762C3.58263 33.2584 3.84497 33.0738 4.01725 32.8224C4.18953 32.571 4.27567 32.241 4.27567 31.8325C4.27567 31.2905 4.10339 30.8859 3.75883 30.6188C3.41427 30.3517 2.87002 30.2181 2.12609 30.2181ZM17.0752 37.7245L16.065 35.1202H12.7408L11.7424 37.7245H10.6735L13.9507 29.2754H14.9021L18.1676 37.7245H17.0752ZM14.8082 31.6322C14.7847 31.5694 14.7455 31.4554 14.6907 31.2905C14.6359 31.1255 14.5811 30.9566 14.5263 30.7838C14.4793 30.6031 14.4401 30.4656 14.4088 30.3713C14.3696 30.5284 14.3266 30.6895 14.2796 30.8545C14.2404 31.0116 14.1974 31.1569 14.1504 31.2905C14.1112 31.424 14.076 31.5379 14.0447 31.6322L13.0932 34.1775H15.7479L14.8082 31.6322ZM29.5578 31.2787C29.5578 31.8522 29.3777 32.3078 29.0174 32.6456C28.6572 32.9756 28.1756 33.1877 27.5726 33.282V33.3291C28.2774 33.4234 28.8138 33.6433 29.1819 33.989C29.5499 34.3346 29.734 34.7864 29.734 35.3441C29.734 35.8391 29.6087 36.2751 29.3581 36.6521C29.1075 37.0214 28.7316 37.312 28.2304 37.5242C27.7292 37.7363 27.1028 37.8423 26.351 37.8423C25.8968 37.8423 25.4622 37.807 25.0472 37.7363C24.64 37.6734 24.2602 37.5556 23.9078 37.3827V36.4165C24.1505 36.5343 24.4089 36.6364 24.683 36.7228C24.9649 36.8014 25.2469 36.8643 25.5288 36.9114C25.8107 36.9507 26.0808 36.9703 26.3393 36.9703C27.091 36.9703 27.6588 36.8289 28.0425 36.5461C28.434 36.2633 28.6298 35.8626 28.6298 35.3441C28.6298 34.8099 28.4027 34.4211 27.9485 34.1775C27.4943 33.934 26.86 33.8122 26.0456 33.8122H24.8475V32.9284H25.9869C26.5429 32.9284 27.001 32.8656 27.3612 32.7399C27.7292 32.6142 28.0033 32.4374 28.1834 32.2096C28.3714 31.9739 28.4654 31.699 28.4654 31.3847C28.4654 30.9605 28.3087 30.6345 27.9955 30.4067C27.6823 30.1789 27.2751 30.0649 26.7739 30.0649C26.2492 30.0649 25.8107 30.1317 25.4583 30.2653C25.1137 30.3988 24.777 30.5717 24.4481 30.7838L23.943 30.0649C24.1623 29.9 24.4129 29.7546 24.6948 29.6289C24.9845 29.4954 25.3056 29.3893 25.658 29.3108C26.0104 29.2322 26.3862 29.1929 26.7856 29.1929C27.3886 29.1929 27.8937 29.2833 28.3009 29.464C28.7159 29.6447 29.0292 29.8921 29.2406 30.2064C29.452 30.5127 29.5578 30.8702 29.5578 31.2787ZM39.0122 29.3108C40.1086 29.3108 40.9073 29.5268 41.4085 29.9589C41.9097 30.391 42.1603 30.9998 42.1603 31.7854C42.1603 32.1311 42.1015 32.4649 41.9841 32.787C41.8744 33.1013 41.6904 33.3841 41.432 33.6355C41.1736 33.8869 40.829 34.0872 40.3983 34.2364C39.9676 34.3779 39.439 34.4486 38.8126 34.4486H37.8494V37.7245H36.7922V29.3108H39.0122ZM38.9183 30.2181H37.8494V33.5412H38.6951C39.2276 33.5412 39.67 33.4862 40.0224 33.3762C40.3748 33.2584 40.6372 33.0738 40.8094 32.8224C40.9817 32.571 41.0679 32.241 41.0679 31.8325C41.0679 31.2905 40.8956 30.8859 40.551 30.6188C40.2065 30.3517 39.6622 30.2181 38.9183 30.2181ZM53.8673 37.7245L52.8571 35.1202H49.5329L48.5344 37.7245H47.4657L50.7427 29.2754H51.6942L54.9597 37.7245H53.8673ZM51.6002 31.6322C51.5767 31.5694 51.5376 31.4554 51.4827 31.2905C51.4279 31.1255 51.3731 30.9566 51.3183 30.7838C51.2713 30.6031 51.2322 30.4656 51.2008 30.3713C51.1617 30.5284 51.1186 30.6895 51.0716 30.8545C51.0325 31.0116 50.9894 31.1569 50.9424 31.2905C50.9033 31.424 50.868 31.5379 50.8367 31.6322L49.8852 34.1775H52.5399L51.6002 31.6322ZM61.3932 37.7245V29.3108H66.3737V30.2417H62.4504V32.8695H63.6955C64.5334 32.8695 65.1834 32.9756 65.6454 33.1877C66.1074 33.3919 66.4285 33.6747 66.6086 34.0361C66.7887 34.3896 66.8788 34.7981 66.8788 35.2616C66.8788 35.7723 66.777 36.2122 66.5734 36.5814C66.3776 36.9507 66.0565 37.2335 65.6102 37.4299C65.1638 37.6263 64.5765 37.7245 63.8482 37.7245H61.3932ZM63.7425 36.8171C64.4943 36.8171 65.0229 36.6914 65.3283 36.44C65.6337 36.1808 65.7864 35.788 65.7864 35.2616C65.7864 34.9003 65.712 34.6135 65.5632 34.4014C65.4222 34.1815 65.1873 34.0243 64.8584 33.9301C64.5373 33.8358 64.1066 33.7887 63.5663 33.7887H62.4504V36.8171H63.7425ZM81.2235 33.5058C81.2235 34.1579 81.1413 34.751 80.9768 35.2852C80.8124 35.8116 80.5657 36.2672 80.2368 36.6521C79.9157 37.0371 79.5125 37.3317 79.0269 37.5359C78.5493 37.7402 77.9933 37.8423 77.359 37.8423C76.7012 37.8423 76.1295 37.7402 75.644 37.5359C75.1585 37.3238 74.7552 37.0292 74.4341 36.6521C74.1131 36.2672 73.8742 35.8076 73.7176 35.2734C73.561 34.7392 73.4827 34.1461 73.4827 33.4941C73.4827 32.6299 73.6236 31.8757 73.9055 31.2316C74.1874 30.5874 74.6142 30.0846 75.1859 29.7232C75.7654 29.3618 76.4936 29.1812 77.3707 29.1812C78.2086 29.1812 78.9134 29.3618 79.4851 29.7232C80.0567 30.0767 80.4874 30.5795 80.7772 31.2316C81.0747 31.8757 81.2235 32.6338 81.2235 33.5058ZM74.5986 33.5058C74.5986 34.2129 74.6965 34.8217 74.8922 35.3323C75.088 35.843 75.3895 36.2358 75.7967 36.5107C76.2117 36.7857 76.7325 36.9232 77.359 36.9232C77.9933 36.9232 78.5101 36.7857 78.9095 36.5107C79.3167 36.2358 79.6182 35.843 79.8139 35.3323C80.0097 34.8217 80.1076 34.2129 80.1076 33.5058C80.1076 32.4453 79.8883 31.6165 79.4498 31.0194C79.0113 30.4145 78.3182 30.1121 77.3707 30.1121C76.7364 30.1121 76.2117 30.2496 75.7967 30.5245C75.3895 30.7916 75.088 31.1805 74.8922 31.6911C74.6965 32.1939 74.5986 32.7988 74.5986 33.5058ZM90.6676 37.7245H89.6104V30.2417H86.991V29.3108H93.2753V30.2417H90.6676V37.7245ZM104.262 37.7245L103.252 35.1202H99.9276L98.9292 37.7245H97.8602L101.137 29.2754H102.089L105.354 37.7245H104.262ZM101.995 31.6322C101.971 31.5694 101.932 31.4554 101.877 31.2905C101.823 31.1255 101.768 30.9566 101.713 30.7838C101.666 30.6031 101.627 30.4656 101.596 30.3713C101.556 30.5284 101.513 30.6895 101.466 30.8545C101.427 31.0116 101.384 31.1569 101.337 31.2905C101.298 31.424 101.263 31.5379 101.231 31.6322L100.28 34.1775H102.935L101.995 31.6322ZM118.201 37.7245H117.144V33.8004H112.845V37.7245H111.787V29.3108H112.845V32.8695H117.144V29.3108H118.201V37.7245ZM133.098 33.5058C133.098 34.1579 133.016 34.751 132.851 35.2852C132.687 35.8116 132.44 36.2672 132.111 36.6521C131.79 37.0371 131.387 37.3317 130.901 37.5359C130.424 37.7402 129.868 37.8423 129.233 37.8423C128.575 37.8423 128.004 37.7402 127.518 37.5359C127.033 37.3238 126.629 37.0292 126.308 36.6521C125.987 36.2672 125.749 35.8076 125.592 35.2734C125.435 34.7392 125.357 34.1461 125.357 33.4941C125.357 32.6299 125.498 31.8757 125.78 31.2316C126.062 30.5874 126.489 30.0846 127.06 29.7232C127.64 29.3618 128.368 29.1812 129.245 29.1812C130.083 29.1812 130.788 29.3618 131.359 29.7232C131.931 30.0767 132.362 30.5795 132.651 31.2316C132.949 31.8757 133.098 32.6338 133.098 33.5058ZM126.473 33.5058C126.473 34.2129 126.571 34.8217 126.767 35.3323C126.962 35.843 127.264 36.2358 127.671 36.5107C128.086 36.7857 128.607 36.9232 129.233 36.9232C129.868 36.9232 130.384 36.7857 130.784 36.5107C131.191 36.2358 131.492 35.843 131.688 35.3323C131.884 34.8217 131.982 34.2129 131.982 33.5058C131.982 32.4453 131.763 31.6165 131.324 31.0194C130.886 30.4145 130.193 30.1121 129.245 30.1121C128.611 30.1121 128.086 30.2496 127.671 30.5245C127.264 30.7916 126.962 31.1805 126.767 31.6911C126.571 32.1939 126.473 32.7988 126.473 33.5058ZM151.056 29.3108C151.753 29.3108 152.337 29.3776 152.807 29.5111C153.284 29.6447 153.641 29.8646 153.876 30.171C154.118 30.4774 154.24 30.8859 154.24 31.3965C154.24 31.7265 154.177 32.0211 154.052 32.2803C153.934 32.5317 153.754 32.7438 153.511 32.9166C153.277 33.0816 152.987 33.1955 152.642 33.2584V33.3173C152.995 33.3723 153.312 33.4744 153.594 33.6237C153.883 33.7729 154.111 33.9851 154.275 34.26C154.439 34.535 154.522 34.8924 154.522 35.3323C154.522 35.843 154.404 36.279 154.169 36.6404C153.934 36.9939 153.598 37.2649 153.159 37.4534C152.728 37.6341 152.212 37.7245 151.609 37.7245H148.66V29.3108H151.056ZM151.268 32.8931C151.988 32.8931 152.482 32.7792 152.748 32.5513C153.014 32.3157 153.147 31.97 153.147 31.5144C153.147 31.0509 152.983 30.7209 152.654 30.5245C152.333 30.3203 151.816 30.2181 151.103 30.2181H149.717V32.8931H151.268ZM149.717 33.7769V36.8289H151.409C152.153 36.8289 152.67 36.6836 152.959 36.3929C153.249 36.1022 153.394 35.7212 153.394 35.2499C153.394 34.9513 153.327 34.6921 153.194 34.4721C153.069 34.2522 152.854 34.0833 152.548 33.9654C152.251 33.8397 151.843 33.7769 151.327 33.7769H149.717Z" fill="#592DA6"/>
<defs>
<filter id="filter0_i_227_1241" x="184.166" y="1.20025" width="30.6933" height="47.2724" filterUnits="userSpaceOnUse" color-interpolation-filters="sRGB">
<feFlood flood-opacity="0" result="BackgroundImageFix"/>
<feBlend mode="normal" in="SourceGraphic" in2="BackgroundImageFix" result="shape"/>
<feColorMatrix in="SourceAlpha" type="matrix" values="0 0 0 0 0 0 0 0 0 0 0 0 0 0 0 0 0 0 127 0" result="hardAlpha"/>
<feOffset dx="-1.71674" dy="-1.71674"/>
<feGaussianBlur stdDeviation="2.57511"/>
<feComposite in2="hardAlpha" operator="arithmetic" k2="-1" k3="1"/>
<feColorMatrix type="matrix" values="0 0 0 0 1 0 0 0 0 1 0 0 0 0 1 0 0 0 0.12 0"/>
<feBlend mode="normal" in2="shape" result="effect1_innerShadow_227_1241"/>
</filter>
<filter id="filter1_i_227_1241" x="169.59" y="20.5264" width="30.6933" height="47.2729" filterUnits="userSpaceOnUse" color-interpolation-filters="sRGB">
<feFlood flood-opacity="0" result="BackgroundImageFix"/>
<feBlend mode="normal" in="SourceGraphic" in2="BackgroundImageFix" result="shape"/>
<feColorMatrix in="SourceAlpha" type="matrix" values="0 0 0 0 0 0 0 0 0 0 0 0 0 0 0 0 0 0 127 0" result="hardAlpha"/>
<feOffset dx="1.71674" dy="1.71674"/>
<feGaussianBlur stdDeviation="2.57511"/>
<feComposite in2="hardAlpha" operator="arithmetic" k2="-1" k3="1"/>
<feColorMatrix type="matrix" values="0 0 0 0 1 0 0 0 0 1 0 0 0 0 1 0 0 0 0.12 0"/>
<feBlend mode="normal" in2="shape" result="effect1_innerShadow_227_1241"/>
</filter>
<filter id="filter2_ii_227_1241" x="224.713" y="15.6729" width="84.9276" height="25.4926" filterUnits="userSpaceOnUse" color-interpolation-filters="sRGB">
<feFlood flood-opacity="0" result="BackgroundImageFix"/>
<feBlend mode="normal" in="SourceGraphic" in2="BackgroundImageFix" result="shape"/>
<feColorMatrix in="SourceAlpha" type="matrix" values="0 0 0 0 0 0 0 0 0 0 0 0 0 0 0 0 0 0 127 0" result="hardAlpha"/>
<feOffset dx="-1.71674" dy="-1.71674"/>
<feGaussianBlur stdDeviation="0.858369"/>
<feComposite in2="hardAlpha" operator="arithmetic" k2="-1" k3="1"/>
<feColorMatrix type="matrix" values="0 0 0 0 0.321569 0 0 0 0 0.0901961 0 0 0 0 0.784314 0 0 0 0.24 0"/>
<feBlend mode="normal" in2="shape" result="effect1_innerShadow_227_1241"/>
<feColorMatrix in="SourceAlpha" type="matrix" values="0 0 0 0 0 0 0 0 0 0 0 0 0 0 0 0 0 0 127 0" result="hardAlpha"/>
<feOffset dx="1.71674" dy="1.71674"/>
<feGaussianBlur stdDeviation="1.71674"/>
<feComposite in2="hardAlpha" operator="arithmetic" k2="-1" k3="1"/>
<feColorMatrix type="matrix" values="0 0 0 0 0.980392 0 0 0 0 0.486275 0 0 0 0 0.0745098 0 0 0 0.04 0"/>
<feBlend mode="normal" in2="effect1_innerShadow_227_1241" result="effect2_innerShadow_227_1241"/>
</filter>
<linearGradient id="paint0_linear_227_1241" x1="169.325" y1="4.92749" x2="206.525" y2="35.4352" gradientUnits="userSpaceOnUse">
<stop stop-color="#7733FF"/>
<stop offset="1" stop-color="#330099"/>
</linearGradient>
<linearGradient id="paint1_linear_227_1241" x1="215.124" y1="64.0728" x2="177.924" y2="33.5651" gradientUnits="userSpaceOnUse">
<stop stop-color="#FE7919"/>
<stop offset="1" stop-color="#B33C00"/>
</linearGradient>
<radialGradient id="paint2_radial_227_1241" cx="0" cy="0" r="1" gradientUnits="userSpaceOnUse" gradientTransform="translate(198.756 12.8266) rotate(63.3113) scale(51.3362 36.4339)">
<stop stop-color="#7C4DFF"/>
<stop offset="1" stop-color="#3F1F99"/>
</radialGradient>
<linearGradient id="paint3_linear_227_1241" x1="188.757" y1="1.25231" x2="212.9" y2="42.936" gradientUnits="userSpaceOnUse">
<stop stop-color="#1C1A1A" stop-opacity="0.12"/>
<stop offset="1" stop-color="#0E0D0D" stop-opacity="0"/>
</linearGradient>
<radialGradient id="paint4_radial_227_1241" cx="0" cy="0" r="1" gradientUnits="userSpaceOnUse" gradientTransform="translate(185.694 56.1733) rotate(-117.763) scale(48.2429 34.2418)">
<stop stop-color="#FF8214"/>
<stop offset="1" stop-color="#CC4400"/>
</radialGradient>
<linearGradient id="paint5_linear_227_1241" x1="195.694" y1="67.7475" x2="171.551" y2="26.0639" gradientUnits="userSpaceOnUse">
<stop stop-color="#453434" stop-opacity="0"/>
<stop offset="1" stop-color="#2E2929" stop-opacity="0.08"/>
</linearGradient>
</defs>
</svg>
