<svg width="339" height="69" viewBox="0 0 339 69" fill="none" xmlns="http://www.w3.org/2000/svg">
<path d="M183.039 1.12496C183.949 1.57589 185.302 2.50348 185.865 2.91091C192.784 7.40438 207.031 16.4897 208.77 17.6176C211.438 19.3477 211.872 19.8759 213.219 21.9427C214.107 23.3038 214.351 31.5527 214.561 35.4888L168.031 5.67651L176.405 0.82643C179.425 -0.922505 181.903 0.561242 183.039 1.12496Z" fill="url(#paint0_linear_71_339)"/>
<path d="M201.41 67.8761C200.5 67.4249 199.146 66.4973 198.584 66.0898C191.665 61.5966 177.418 52.5111 175.678 51.3833C173.01 49.653 172.576 49.1247 171.229 47.0581C170.342 45.697 170.097 37.4478 169.887 33.5117L216.417 63.3245L208.043 68.1746C205.023 69.9236 202.545 68.4398 201.41 67.8761Z" fill="url(#paint1_linear_71_339)"/>
<g filter="url(#filter0_i_71_339)">
<path d="M200.368 19.759C196.672 10.9413 189.336 5.25924 185.883 2.91602C192.641 7.24786 206.812 16.337 209.42 18.0386C212.681 20.1656 213.413 21.9256 213.729 23.5739C214.046 25.2222 214.655 36.7751 214.822 38.651C214.989 40.527 214.61 41.944 213.504 42.5843L203.339 48.4718C202.494 39.2568 202.193 24.1114 200.368 19.759Z" fill="url(#paint2_radial_71_339)"/>
</g>
<path d="M200.595 19.6634C198.108 13.7316 193.99 9.21252 190.496 6.16406C197.674 10.7669 207.197 16.8802 209.288 18.2439C210.9 19.2956 211.871 20.2466 212.478 21.1252C213.084 22.0008 213.336 22.8177 213.49 23.6199C213.566 24.0152 213.662 25.03 213.767 26.3799C213.871 27.7224 213.982 29.3783 214.089 31.0425C214.162 32.1883 214.233 33.3391 214.298 34.3937C214.422 36.3981 214.525 38.0553 214.579 38.6726C214.744 40.5282 214.357 41.8073 213.383 42.3715L203.55 48.067C203.317 45.4431 203.125 42.3769 202.928 39.2271C202.783 36.9065 202.635 34.5407 202.466 32.2733C202.261 29.5306 202.026 26.9354 201.727 24.7519C201.428 22.5753 201.064 20.7841 200.595 19.6634Z" stroke="url(#paint3_linear_71_339)" stroke-width="0.429185"/>
<g filter="url(#filter1_i_71_339)">
<path d="M184.081 49.2404C187.778 58.0582 195.114 63.7406 198.567 66.0836C191.808 61.752 177.638 52.6626 175.029 50.9608C171.769 48.8338 171.037 47.0741 170.72 45.4258C170.404 43.7775 169.794 32.2244 169.628 30.3484C169.461 28.4724 169.839 27.0555 170.945 26.4149L181.11 20.5273C181.956 29.7425 182.257 44.8882 184.081 49.2404Z" fill="url(#paint4_radial_71_339)"/>
</g>
<path d="M183.855 49.3348C186.342 55.2665 190.46 59.7856 193.954 62.8341C186.777 58.2316 177.253 52.1182 175.163 50.7543C173.55 49.7026 172.579 48.7515 171.971 47.8731C171.367 46.9977 171.114 46.1807 170.96 45.3784C170.884 44.9831 170.788 43.9683 170.683 42.6185C170.579 41.2762 170.468 39.62 170.362 37.9561C170.288 36.8102 170.217 35.6595 170.152 34.6049C170.028 32.6005 169.926 30.9433 169.871 30.3261C169.706 28.4705 170.093 27.1913 171.067 26.6271L180.901 20.9316C181.133 23.5558 181.325 26.6221 181.522 29.7715C181.667 32.0921 181.815 34.4579 181.984 36.7252C182.189 39.4678 182.425 42.0632 182.724 44.2467C183.022 46.4232 183.386 48.2144 183.855 49.3348Z" stroke="url(#paint5_linear_71_339)" stroke-width="0.429185"/>
<g filter="url(#filter2_ii_71_339)">
<path d="M231.786 24.5865C232.412 23.6228 233.196 22.8687 234.135 22.324C235.075 21.7584 236.119 21.4756 237.268 21.4756V27.1632H235.795C234.459 27.1632 233.456 27.4564 232.788 28.043C232.12 28.6086 231.786 29.6142 231.786 31.0596V39.1982H226.43V21.6641H231.786V24.5865ZM249.569 34.6418V39.1982H246.844C244.902 39.1982 243.388 38.7268 242.302 37.7841C241.216 36.8205 240.674 35.2598 240.674 33.1021V26.1262H238.544V21.6641H240.674V17.3906H246.03V21.6641H249.538V26.1262H246.03V33.165C246.03 33.6886 246.155 34.0657 246.406 34.2962C246.656 34.5266 247.074 34.6418 247.659 34.6418H249.569ZM269.029 30.1483C269.029 30.6511 268.998 31.1748 268.935 31.7195H256.813C256.897 32.8088 257.241 33.6468 257.847 34.2333C258.473 34.7989 259.235 35.0818 260.133 35.0818C261.47 35.0818 262.399 34.5161 262.921 33.3849H268.622C268.33 34.5371 267.797 35.574 267.025 36.4958C266.273 37.4175 265.323 38.1402 264.174 38.664C263.025 39.1877 261.741 39.4496 260.321 39.4496C258.609 39.4496 257.085 39.0829 255.748 38.3497C254.411 37.6165 253.367 36.5691 252.616 35.2074C251.864 33.8458 251.488 32.2537 251.488 30.4312C251.488 28.6086 251.854 27.0165 252.584 25.6549C253.336 24.2932 254.38 23.2458 255.717 22.5126C257.053 21.7793 258.588 21.4128 260.321 21.4128C262.013 21.4128 263.516 21.7689 264.832 22.4811C266.148 23.1934 267.171 24.2094 267.902 25.5292C268.653 26.8489 269.029 28.3887 269.029 30.1483ZM263.548 28.7343C263.548 27.8125 263.234 27.0794 262.608 26.5347C261.981 25.99 261.198 25.7177 260.259 25.7177C259.361 25.7177 258.599 25.9796 257.972 26.5033C257.367 27.027 256.991 27.7707 256.844 28.7343H263.548ZM270.79 30.4312C270.79 28.6086 271.155 27.0165 271.887 25.6549C272.638 24.2932 273.672 23.2458 274.988 22.5126C276.324 21.7793 277.848 21.4128 279.561 21.4128C281.753 21.4128 283.581 21.9888 285.042 23.141C286.525 24.2932 287.496 25.9167 287.956 28.0116H282.255C281.774 26.6709 280.845 26.0005 279.467 26.0005C278.485 26.0005 277.702 26.3881 277.118 27.1632C276.533 27.9173 276.241 29.0066 276.241 30.4312C276.241 31.8556 276.533 32.9555 277.118 33.7306C277.702 34.4847 278.485 34.8618 279.467 34.8618C280.845 34.8618 281.774 34.1914 282.255 32.8507H287.956C287.496 34.9037 286.525 36.5167 285.042 37.6899C283.559 38.863 281.732 39.4496 279.561 39.4496C277.848 39.4496 276.324 39.0829 274.988 38.3497C273.672 37.6165 272.638 36.5691 271.887 35.2074C271.155 33.8458 270.79 32.2537 270.79 30.4312ZM298.777 39.4496C297.064 39.4496 295.519 39.0829 294.141 38.3497C292.783 37.6165 291.708 36.5691 290.915 35.2074C290.142 33.8458 289.756 32.2537 289.756 30.4312C289.756 28.6295 290.152 27.0479 290.945 25.6863C291.739 24.3037 292.825 23.2458 294.204 22.5126C295.582 21.7793 297.127 21.4128 298.84 21.4128C300.552 21.4128 302.097 21.7793 303.475 22.5126C304.854 23.2458 305.939 24.3037 306.733 25.6863C307.526 27.0479 307.923 28.6295 307.923 30.4312C307.923 32.2327 307.516 33.8248 306.702 35.2074C305.908 36.5691 304.812 37.6165 303.413 38.3497C302.035 39.0829 300.489 39.4496 298.777 39.4496ZM298.777 34.7989C299.8 34.7989 300.667 34.4219 301.377 33.6677C302.107 32.9136 302.473 31.8347 302.473 30.4312C302.473 29.0276 302.118 27.9487 301.408 27.1946C300.719 26.4404 299.862 26.0634 298.84 26.0634C297.795 26.0634 296.929 26.4404 296.24 27.1946C295.551 27.9278 295.206 29.0066 295.206 30.4312C295.206 31.8347 295.54 32.9136 296.208 33.6677C296.897 34.4219 297.753 34.7989 298.777 34.7989Z" fill="white"/>
</g>
<path d="M230.89 53.8768V55.7124H230.301V54.4199H226.621V49.5112H227.238V53.8699H229.684V49.5112H230.294V53.8768H230.89ZM233.351 49.5112H233.927V52.2062C233.927 52.3206 233.924 52.4468 233.92 52.5843C233.92 52.7174 233.918 52.85 233.913 52.983C233.909 53.1161 233.902 53.235 233.893 53.3405C233.888 53.4412 233.883 53.5193 233.879 53.5743H233.906L236.599 49.5112H237.284V54.4199H236.709V51.7524C236.709 51.6287 236.711 51.4956 236.716 51.3537C236.72 51.2068 236.725 51.0674 236.729 50.9343C236.739 50.7968 236.745 50.6755 236.75 50.5699C236.754 50.4643 236.759 50.3867 236.764 50.3362H236.736L234.036 54.4199H233.351V49.5112ZM242.64 49.4424V50.0474C243.17 50.0568 243.588 50.1437 243.894 50.3087C244.199 50.4737 244.417 50.6937 244.545 50.9687C244.672 51.2392 244.736 51.5417 244.736 51.8762C244.736 52.0962 244.702 52.3162 244.634 52.5362C244.57 52.7517 244.458 52.9487 244.298 53.1274C244.138 53.3017 243.923 53.4437 243.654 53.5537C243.384 53.6637 243.046 53.7231 242.64 53.7324V54.4887H242.03V53.7324C241.614 53.7231 241.269 53.6637 240.995 53.5537C240.726 53.4392 240.513 53.2924 240.358 53.1137C240.203 52.9305 240.093 52.7311 240.029 52.5155C239.965 52.3 239.933 52.0868 239.933 51.8762C239.933 51.6331 239.967 51.4042 240.036 51.1887C240.109 50.9687 240.225 50.7762 240.385 50.6112C240.55 50.4418 240.767 50.3062 241.036 50.2055C241.306 50.1049 241.637 50.0518 242.03 50.0474V49.4424H242.64ZM242.03 50.5699C241.664 50.5793 241.372 50.6387 241.153 50.7487C240.938 50.8587 240.785 51.0099 240.694 51.2024C240.602 51.3905 240.557 51.6125 240.557 51.8693C240.557 52.1399 240.607 52.3756 240.707 52.5774C240.813 52.7743 240.972 52.928 241.187 53.038C241.406 53.148 241.687 53.2099 242.03 53.2237V50.5699ZM242.64 53.2237C242.992 53.2099 243.274 53.1456 243.489 53.0312C243.709 52.9167 243.866 52.7606 243.962 52.5637C244.062 52.3618 244.113 52.1305 244.113 51.8693C244.113 51.608 244.067 51.3836 243.976 51.1955C243.884 51.003 243.732 50.8542 243.517 50.7487C243.302 50.6387 243.01 50.5793 242.64 50.5699V53.2237ZM248.695 49.5112C249.335 49.5112 249.801 49.6374 250.093 49.8893C250.385 50.1412 250.531 50.4967 250.531 50.9549C250.531 51.1567 250.497 51.3512 250.428 51.5393C250.364 51.7225 250.257 51.8875 250.106 52.0343C249.956 52.1811 249.755 52.298 249.503 52.3849C249.252 52.4674 248.944 52.5087 248.578 52.5087H248.017V54.4199H247.4V49.5112H248.695ZM248.64 50.0405H248.017V51.9793H248.51C248.821 51.9793 249.079 51.9474 249.284 51.883C249.49 51.8143 249.643 51.7067 249.743 51.5599C249.844 51.4131 249.894 51.2206 249.894 50.9824C249.894 50.6662 249.794 50.43 249.593 50.2743C249.391 50.1186 249.074 50.0405 248.64 50.0405ZM257.462 51.9587C257.462 52.3392 257.414 52.685 257.318 52.9968C257.222 53.3037 257.078 53.5699 256.887 53.7943C256.699 54.0187 256.464 54.1906 256.181 54.3099C255.902 54.4292 255.578 54.4887 255.208 54.4887C254.824 54.4887 254.49 54.4292 254.207 54.3099C253.924 54.1862 253.689 54.0143 253.502 53.7943C253.314 53.5699 253.175 53.3017 253.084 52.9899C252.992 52.6781 252.947 52.3324 252.947 51.9518C252.947 51.4475 253.029 51.0075 253.193 50.6318C253.358 50.2561 253.606 49.9625 253.94 49.7518C254.278 49.5411 254.703 49.4355 255.215 49.4355C255.703 49.4355 256.114 49.5411 256.448 49.7518C256.781 49.958 257.032 50.2512 257.202 50.6318C257.375 51.0075 257.462 51.4499 257.462 51.9587ZM253.598 51.9587C253.598 52.3712 253.654 52.7262 253.769 53.0243C253.883 53.3224 254.059 53.5512 254.296 53.7118C254.538 53.8724 254.842 53.9524 255.208 53.9524C255.578 53.9524 255.879 53.8724 256.112 53.7118C256.35 53.5512 256.525 53.3224 256.64 53.0243C256.754 52.7262 256.811 52.3712 256.811 51.9587C256.811 51.3399 256.683 50.8562 256.427 50.508C256.171 50.155 255.767 49.9787 255.215 49.9787C254.845 49.9787 254.538 50.0587 254.296 50.2193C254.059 50.375 253.883 50.6018 253.769 50.8999C253.654 51.1931 253.598 51.5462 253.598 51.9587ZM261.588 49.5112C261.995 49.5112 262.335 49.55 262.609 49.628C262.888 49.7061 263.096 49.8343 263.233 50.013C263.374 50.1918 263.445 50.43 263.445 50.728C263.445 50.9205 263.409 51.0924 263.336 51.2437C263.267 51.3905 263.162 51.5142 263.021 51.6149C262.884 51.7112 262.715 51.7775 262.513 51.8143V51.8487C262.719 51.8806 262.904 51.9405 263.069 52.0274C263.237 52.1143 263.37 52.2381 263.466 52.3987C263.562 52.5592 263.61 52.7675 263.61 53.0243C263.61 53.3224 263.541 53.5767 263.404 53.7874C263.267 53.9937 263.071 54.1518 262.815 54.2618C262.564 54.3674 262.262 54.4199 261.911 54.4199H260.191V49.5112H261.588ZM261.712 51.6012C262.132 51.6012 262.42 51.5349 262.575 51.4018C262.73 51.2643 262.808 51.0625 262.808 50.7968C262.808 50.5262 262.712 50.3337 262.52 50.2193C262.333 50.1 262.031 50.0405 261.616 50.0405H260.807V51.6012H261.712ZM260.807 52.1168V53.8974H261.794C262.228 53.8974 262.53 53.8124 262.698 53.643C262.867 53.4736 262.952 53.2512 262.952 52.9762C262.952 52.8018 262.913 52.6506 262.836 52.5224C262.763 52.3942 262.637 52.2955 262.459 52.2268C262.285 52.1536 262.048 52.1168 261.746 52.1168H260.807ZM269.362 54.4199L268.772 52.9005H266.833L266.251 54.4199H265.627L267.539 49.4905H268.094L269.999 54.4199H269.362ZM268.039 50.8655C268.025 50.8287 268.002 50.7624 267.971 50.6662C267.938 50.5699 267.907 50.4712 267.875 50.3705C267.847 50.265 267.824 50.1849 267.806 50.1299C267.783 50.2217 267.758 50.3155 267.731 50.4118C267.708 50.5036 267.683 50.5881 267.655 50.6662C267.632 50.7442 267.612 50.8105 267.594 50.8655L267.039 52.3505H268.587L268.039 50.8655ZM273.786 52.3849L272.518 54.4199H271.798L273.169 52.2749C272.995 52.2155 272.831 52.133 272.676 52.0274C272.525 51.9218 272.401 51.7775 272.306 51.5943C272.21 51.4111 272.162 51.1749 272.162 50.8862C272.162 50.4417 272.315 50.1024 272.621 49.8687C272.927 49.6305 273.384 49.5112 273.991 49.5112H275.362V54.4199H274.745V52.3849H273.786ZM274.005 50.0405C273.744 50.0405 273.525 50.0705 273.347 50.1299C273.169 50.1893 273.032 50.2836 272.936 50.4118C272.844 50.54 272.799 50.7074 272.799 50.9137C272.799 51.2162 272.899 51.4499 273.1 51.6149C273.302 51.7799 273.612 51.8624 274.032 51.8624H274.745V50.0405H274.005ZM283.099 49.5112C283.739 49.5112 284.205 49.6374 284.497 49.8893C284.789 50.1412 284.936 50.4967 284.936 50.9549C284.936 51.1567 284.902 51.3512 284.833 51.5393C284.769 51.7225 284.662 51.8875 284.511 52.0343C284.36 52.1811 284.159 52.298 283.908 52.3849C283.656 52.4674 283.348 52.5087 282.983 52.5087H282.421V54.4199H281.804V49.5112H283.099ZM283.045 50.0405H282.421V51.9793H282.914C283.225 51.9793 283.483 51.9474 283.689 51.883C283.894 51.8143 284.047 51.7067 284.148 51.5599C284.248 51.4131 284.299 51.2206 284.299 50.9824C284.299 50.6662 284.198 50.43 283.997 50.2743C283.796 50.1186 283.478 50.0405 283.045 50.0405ZM290.326 54.4199L289.737 52.9005H287.798L287.215 54.4199H286.592L288.503 49.4905H289.058L290.963 54.4199H290.326ZM289.003 50.8655C288.99 50.8287 288.967 50.7624 288.935 50.6662C288.903 50.5699 288.871 50.4712 288.839 50.3705C288.812 50.265 288.789 50.1849 288.77 50.1299C288.747 50.2217 288.723 50.3155 288.695 50.4118C288.672 50.5036 288.647 50.5881 288.62 50.6662C288.597 50.7442 288.576 50.8105 288.558 50.8655L288.003 52.3505H289.552L289.003 50.8655ZM296.168 50.6593C296.168 50.9937 296.063 51.2599 295.853 51.4568C295.643 51.6493 295.362 51.773 295.01 51.828V51.8555C295.421 51.9105 295.735 52.0387 295.949 52.2405C296.164 52.4424 296.271 52.7056 296.271 53.0312C296.271 53.3199 296.198 53.5743 296.052 53.7943C295.906 54.0099 295.687 54.1793 295.394 54.303C295.102 54.4268 294.736 54.4887 294.298 54.4887C294.033 54.4887 293.779 54.468 293.537 54.4268C293.3 54.39 293.078 54.3212 292.872 54.2205V53.6568C293.014 53.7255 293.165 53.7849 293.325 53.8355C293.489 53.8812 293.654 53.918 293.818 53.9455C293.982 53.9686 294.14 53.9799 294.291 53.9799C294.729 53.9799 295.061 53.8974 295.284 53.7324C295.513 53.5674 295.627 53.3337 295.627 53.0312C295.627 52.7193 295.495 52.4925 295.23 52.3505C294.965 52.2086 294.595 52.1374 294.119 52.1374H293.421V51.6218H294.085C294.41 51.6218 294.677 51.585 294.887 51.5118C295.102 51.4386 295.262 51.3355 295.367 51.2024C295.476 51.0649 295.531 50.9043 295.531 50.7212C295.531 50.4737 295.44 50.2836 295.257 50.1505C295.074 50.0175 294.837 49.9512 294.544 49.9512C294.238 49.9512 293.982 49.99 293.777 50.068C293.576 50.1461 293.379 50.2468 293.188 50.3705L292.893 49.9512C293.021 49.8549 293.167 49.77 293.331 49.6968C293.501 49.6187 293.688 49.5568 293.893 49.5112C294.099 49.4655 294.318 49.4424 294.551 49.4424C294.903 49.4424 295.198 49.495 295.435 49.6005C295.677 49.7061 295.86 49.8505 295.983 50.0337C296.107 50.2124 296.168 50.4211 296.168 50.6593ZM300.245 49.5112C300.884 49.5112 301.35 49.6374 301.643 49.8893C301.935 50.1412 302.081 50.4967 302.081 50.9549C302.081 51.1567 302.047 51.3512 301.978 51.5393C301.914 51.7225 301.807 51.8875 301.656 52.0343C301.505 52.1811 301.304 52.298 301.053 52.3849C300.802 52.4674 300.494 52.5087 300.128 52.5087H299.566V54.4199H298.95V49.5112H300.245ZM300.19 50.0405H299.566V51.9793H300.06C300.37 51.9793 300.628 51.9474 300.834 51.883C301.04 51.8143 301.193 51.7067 301.293 51.5599C301.393 51.4131 301.444 51.2206 301.444 50.9824C301.444 50.6662 301.343 50.43 301.142 50.2743C300.941 50.1186 300.624 50.0405 300.19 50.0405ZM307.471 54.4199L306.882 52.9005H304.943L304.36 54.4199H303.737L305.648 49.4905H306.204L308.108 54.4199H307.471ZM306.149 50.8655C306.135 50.8287 306.112 50.7624 306.08 50.6662C306.048 50.5699 306.017 50.4712 305.984 50.3705C305.957 50.265 305.934 50.1849 305.916 50.1299C305.893 50.2217 305.868 50.3155 305.84 50.4118C305.818 50.5036 305.792 50.5881 305.765 50.6662C305.742 50.7442 305.722 50.8105 305.703 50.8655L305.148 52.3505H306.697L306.149 50.8655ZM310.422 54.4199V49.5112H313.328V50.0543H311.039V51.5874H311.765C312.254 51.5874 312.633 51.6493 312.903 51.773C313.172 51.8924 313.359 52.0574 313.465 52.268C313.569 52.4743 313.622 52.7125 313.622 52.983C313.622 53.2811 313.563 53.5375 313.444 53.753C313.33 53.9686 313.143 54.1336 312.882 54.248C312.622 54.3624 312.279 54.4199 311.854 54.4199H310.422ZM311.793 53.8905C312.231 53.8905 312.54 53.8174 312.718 53.6705C312.896 53.5193 312.985 53.29 312.985 52.983C312.985 52.7724 312.941 52.6049 312.855 52.4812C312.773 52.353 312.636 52.2612 312.444 52.2062C312.256 52.1512 312.005 52.1237 311.69 52.1237H311.039V53.8905H311.793ZM320.551 51.9587C320.551 52.3392 320.503 52.685 320.407 52.9968C320.311 53.3037 320.167 53.5699 319.976 53.7943C319.788 54.0187 319.553 54.1906 319.27 54.3099C318.991 54.4292 318.667 54.4887 318.297 54.4887C317.913 54.4887 317.58 54.4292 317.296 54.3099C317.013 54.1862 316.778 54.0143 316.591 53.7943C316.403 53.5699 316.264 53.3017 316.173 52.9899C316.081 52.6781 316.036 52.3324 316.036 51.9518C316.036 51.4475 316.118 51.0075 316.282 50.6318C316.447 50.2561 316.696 49.9625 317.029 49.7518C317.367 49.5411 317.792 49.4355 318.304 49.4355C318.793 49.4355 319.204 49.5411 319.537 49.7518C319.87 49.958 320.122 50.2512 320.291 50.6318C320.465 51.0075 320.551 51.4499 320.551 51.9587ZM316.687 51.9587C316.687 52.3712 316.744 52.7262 316.858 53.0243C316.972 53.3224 317.148 53.5512 317.386 53.7118C317.628 53.8724 317.931 53.9524 318.297 53.9524C318.667 53.9524 318.968 53.8724 319.201 53.7118C319.439 53.5512 319.615 53.3224 319.729 53.0243C319.843 52.7262 319.9 52.3712 319.9 51.9587C319.9 51.3399 319.772 50.8562 319.517 50.508C319.261 50.155 318.856 49.9787 318.304 49.9787C317.934 49.9787 317.628 50.0587 317.386 50.2193C317.148 50.375 316.972 50.6018 316.858 50.8999C316.744 51.1931 316.687 51.5462 316.687 51.9587ZM324.621 54.4199H324.005V50.0543H322.477V49.5112H326.142V50.0543H324.621V54.4199ZM332.094 54.4199H331.354L329.141 51.9312V54.4199H328.524V49.5112H329.141V51.8899L331.3 49.5112H331.998L329.874 51.8968L332.094 54.4199ZM337.474 54.4199L336.885 52.9005H334.946L334.363 54.4199H333.74L335.652 49.4905H336.207L338.111 54.4199H337.474ZM336.152 50.8655C336.138 50.8287 336.116 50.7624 336.083 50.6662C336.051 50.5699 336.02 50.4712 335.987 50.3705C335.96 50.265 335.937 50.1849 335.919 50.1299C335.896 50.2217 335.871 50.3155 335.843 50.4118C335.821 50.5036 335.795 50.5881 335.768 50.6662C335.746 50.7442 335.725 50.8105 335.706 50.8655L335.151 52.3505H336.7L336.152 50.8655Z" fill="white"/>
<path d="M2.22006 29.3113C3.31638 29.3113 4.11514 29.5273 4.61631 29.9594C5.11749 30.3915 5.36808 31.0003 5.36808 31.7859C5.36808 32.1315 5.30935 32.4654 5.19188 32.7875C5.08225 33.1018 4.89822 33.3846 4.6398 33.636C4.38139 33.8873 4.03683 34.0877 3.60613 34.2369C3.17543 34.3783 2.64684 34.449 2.02037 34.449H1.05717V37.725H0V29.3113H2.22006ZM2.12609 30.2186H1.05717V33.5417H1.90291C2.43541 33.5417 2.87785 33.4867 3.23024 33.3767C3.58263 33.2589 3.84497 33.0743 4.01725 32.8229C4.18953 32.5715 4.27567 32.2415 4.27567 31.833C4.27567 31.291 4.10339 30.8864 3.75883 30.6193C3.41427 30.3522 2.87002 30.2186 2.12609 30.2186ZM17.0752 37.725L16.065 35.1207H12.7408L11.7424 37.725H10.6735L13.9507 29.2759H14.9021L18.1676 37.725H17.0752ZM14.8082 31.6327C14.7847 31.5698 14.7455 31.4559 14.6907 31.291C14.6359 31.126 14.5811 30.9571 14.5263 30.7843C14.4793 30.6036 14.4401 30.4661 14.4088 30.3718C14.3696 30.5289 14.3266 30.69 14.2796 30.855C14.2404 31.0121 14.1974 31.1574 14.1504 31.291C14.1112 31.4245 14.076 31.5384 14.0447 31.6327L13.0932 34.178H15.7479L14.8082 31.6327ZM29.5578 31.2792C29.5578 31.8527 29.3777 32.3083 29.0174 32.6461C28.6572 32.9761 28.1756 33.1882 27.5726 33.2824V33.3296C28.2774 33.4238 28.8138 33.6438 29.1819 33.9895C29.5499 34.3351 29.734 34.7868 29.734 35.3446C29.734 35.8395 29.6087 36.2755 29.3581 36.6526C29.1075 37.0219 28.7316 37.3125 28.2304 37.5246C27.7292 37.7368 27.1028 37.8428 26.351 37.8428C25.8968 37.8428 25.4622 37.8075 25.0472 37.7368C24.64 37.6739 24.2602 37.5561 23.9078 37.3832V36.417C24.1505 36.5348 24.4089 36.6369 24.683 36.7233C24.9649 36.8019 25.2469 36.8647 25.5288 36.9119C25.8107 36.9512 26.0808 36.9708 26.3393 36.9708C27.091 36.9708 27.6588 36.8294 28.0425 36.5466C28.434 36.2638 28.6298 35.8631 28.6298 35.3446C28.6298 34.8104 28.4027 34.4215 27.9485 34.178C27.4943 33.9345 26.86 33.8127 26.0456 33.8127H24.8475V32.9289H25.9869C26.5429 32.9289 27.001 32.8661 27.3612 32.7404C27.7292 32.6147 28.0033 32.4379 28.1834 32.2101C28.3714 31.9744 28.4654 31.6995 28.4654 31.3852C28.4654 30.961 28.3087 30.635 27.9955 30.4072C27.6823 30.1793 27.2751 30.0654 26.7739 30.0654C26.2492 30.0654 25.8107 30.1322 25.4583 30.2658C25.1137 30.3993 24.777 30.5721 24.4481 30.7843L23.943 30.0654C24.1623 29.9005 24.4129 29.7551 24.6948 29.6294C24.9845 29.4959 25.3056 29.3898 25.658 29.3113C26.0104 29.2327 26.3862 29.1934 26.7856 29.1934C27.3886 29.1934 27.8937 29.2838 28.3009 29.4645C28.7159 29.6451 29.0292 29.8926 29.2406 30.2068C29.452 30.5132 29.5578 30.8707 29.5578 31.2792ZM39.0122 29.3113C40.1086 29.3113 40.9073 29.5273 41.4085 29.9594C41.9097 30.3915 42.1603 31.0003 42.1603 31.7859C42.1603 32.1315 42.1015 32.4654 41.9841 32.7875C41.8744 33.1018 41.6904 33.3846 41.432 33.636C41.1736 33.8873 40.829 34.0877 40.3983 34.2369C39.9676 34.3783 39.439 34.449 38.8126 34.449H37.8494V37.725H36.7922V29.3113H39.0122ZM38.9183 30.2186H37.8494V33.5417H38.6951C39.2276 33.5417 39.67 33.4867 40.0224 33.3767C40.3748 33.2589 40.6372 33.0743 40.8094 32.8229C40.9817 32.5715 41.0679 32.2415 41.0679 31.833C41.0679 31.291 40.8956 30.8864 40.551 30.6193C40.2065 30.3522 39.6622 30.2186 38.9183 30.2186ZM53.8673 37.725L52.8571 35.1207H49.5329L48.5344 37.725H47.4657L50.7427 29.2759H51.6942L54.9597 37.725H53.8673ZM51.6002 31.6327C51.5767 31.5698 51.5376 31.4559 51.4827 31.291C51.4279 31.126 51.3731 30.9571 51.3183 30.7843C51.2713 30.6036 51.2322 30.4661 51.2008 30.3718C51.1617 30.5289 51.1186 30.69 51.0716 30.855C51.0325 31.0121 50.9894 31.1574 50.9424 31.291C50.9033 31.4245 50.868 31.5384 50.8367 31.6327L49.8852 34.178H52.5399L51.6002 31.6327ZM61.3932 37.725V29.3113H66.3737V30.2422H62.4504V32.87H63.6955C64.5334 32.87 65.1834 32.9761 65.6454 33.1882C66.1074 33.3924 66.4285 33.6752 66.6086 34.0366C66.7887 34.3901 66.8788 34.7986 66.8788 35.2621C66.8788 35.7728 66.777 36.2127 66.5734 36.5819C66.3776 36.9512 66.0565 37.234 65.6102 37.4304C65.1638 37.6268 64.5765 37.725 63.8482 37.725H61.3932ZM63.7425 36.8176C64.4943 36.8176 65.0229 36.6919 65.3283 36.4405C65.6337 36.1813 65.7864 35.7885 65.7864 35.2621C65.7864 34.9008 65.712 34.614 65.5632 34.4019C65.4222 34.1819 65.1873 34.0248 64.8584 33.9306C64.5373 33.8363 64.1066 33.7891 63.5663 33.7891H62.4504V36.8176H63.7425ZM81.2235 33.5063C81.2235 34.1584 81.1413 34.7515 80.9768 35.2857C80.8124 35.812 80.5657 36.2677 80.2368 36.6526C79.9157 37.0376 79.5125 37.3322 79.0269 37.5364C78.5493 37.7407 77.9933 37.8428 77.359 37.8428C76.7012 37.8428 76.1295 37.7407 75.644 37.5364C75.1585 37.3243 74.7552 37.0297 74.4341 36.6526C74.1131 36.2677 73.8742 35.8081 73.7176 35.2739C73.561 34.7397 73.4827 34.1466 73.4827 33.4945C73.4827 32.6304 73.6236 31.8762 73.9055 31.232C74.1874 30.5879 74.6142 30.0851 75.1859 29.7237C75.7654 29.3623 76.4936 29.1816 77.3707 29.1816C78.2086 29.1816 78.9134 29.3623 79.4851 29.7237C80.0567 30.0772 80.4874 30.58 80.7772 31.232C81.0747 31.8762 81.2235 32.6343 81.2235 33.5063ZM74.5986 33.5063C74.5986 34.2134 74.6965 34.8222 74.8922 35.3328C75.088 35.8435 75.3895 36.2363 75.7967 36.5112C76.2117 36.7862 76.7325 36.9237 77.359 36.9237C77.9933 36.9237 78.5101 36.7862 78.9095 36.5112C79.3167 36.2363 79.6182 35.8435 79.8139 35.3328C80.0097 34.8222 80.1076 34.2134 80.1076 33.5063C80.1076 32.4458 79.8883 31.617 79.4498 31.0199C79.0113 30.415 78.3182 30.1126 77.3707 30.1126C76.7364 30.1126 76.2117 30.25 75.7967 30.525C75.3895 30.7921 75.088 31.181 74.8922 31.6916C74.6965 32.1944 74.5986 32.7993 74.5986 33.5063ZM90.6676 37.725H89.6104V30.2422H86.991V29.3113H93.2753V30.2422H90.6676V37.725ZM104.262 37.725L103.252 35.1207H99.9276L98.9292 37.725H97.8602L101.137 29.2759H102.089L105.354 37.725H104.262ZM101.995 31.6327C101.971 31.5698 101.932 31.4559 101.877 31.291C101.823 31.126 101.768 30.9571 101.713 30.7843C101.666 30.6036 101.627 30.4661 101.596 30.3718C101.556 30.5289 101.513 30.69 101.466 30.855C101.427 31.0121 101.384 31.1574 101.337 31.291C101.298 31.4245 101.263 31.5384 101.231 31.6327L100.28 34.178H102.935L101.995 31.6327ZM118.201 37.725H117.144V33.8009H112.845V37.725H111.787V29.3113H112.845V32.87H117.144V29.3113H118.201V37.725ZM133.098 33.5063C133.098 34.1584 133.016 34.7515 132.851 35.2857C132.687 35.812 132.44 36.2677 132.111 36.6526C131.79 37.0376 131.387 37.3322 130.901 37.5364C130.424 37.7407 129.868 37.8428 129.233 37.8428C128.575 37.8428 128.004 37.7407 127.518 37.5364C127.033 37.3243 126.629 37.0297 126.308 36.6526C125.987 36.2677 125.749 35.8081 125.592 35.2739C125.435 34.7397 125.357 34.1466 125.357 33.4945C125.357 32.6304 125.498 31.8762 125.78 31.232C126.062 30.5879 126.489 30.0851 127.06 29.7237C127.64 29.3623 128.368 29.1816 129.245 29.1816C130.083 29.1816 130.788 29.3623 131.359 29.7237C131.931 30.0772 132.362 30.58 132.651 31.232C132.949 31.8762 133.098 32.6343 133.098 33.5063ZM126.473 33.5063C126.473 34.2134 126.571 34.8222 126.767 35.3328C126.962 35.8435 127.264 36.2363 127.671 36.5112C128.086 36.7862 128.607 36.9237 129.233 36.9237C129.868 36.9237 130.384 36.7862 130.784 36.5112C131.191 36.2363 131.492 35.8435 131.688 35.3328C131.884 34.8222 131.982 34.2134 131.982 33.5063C131.982 32.4458 131.763 31.617 131.324 31.0199C130.886 30.415 130.193 30.1126 129.245 30.1126C128.611 30.1126 128.086 30.25 127.671 30.525C127.264 30.7921 126.962 31.181 126.767 31.6916C126.571 32.1944 126.473 32.7993 126.473 33.5063ZM151.056 29.3113C151.753 29.3113 152.337 29.378 152.807 29.5116C153.284 29.6451 153.641 29.8651 153.876 30.1715C154.118 30.4779 154.24 30.8864 154.24 31.397C154.24 31.727 154.177 32.0216 154.052 32.2808C153.934 32.5322 153.754 32.7443 153.511 32.9171C153.277 33.0821 152.987 33.196 152.642 33.2589V33.3178C152.995 33.3728 153.312 33.4749 153.594 33.6242C153.883 33.7734 154.111 33.9855 154.275 34.2605C154.439 34.5355 154.522 34.8929 154.522 35.3328C154.522 35.8435 154.404 36.2795 154.169 36.6408C153.934 36.9944 153.598 37.2654 153.159 37.4539C152.728 37.6346 152.212 37.725 151.609 37.725H148.66V29.3113H151.056ZM151.268 32.8936C151.988 32.8936 152.482 32.7797 152.748 32.5518C153.014 32.3162 153.147 31.9705 153.147 31.5149C153.147 31.0514 152.983 30.7214 152.654 30.525C152.333 30.3208 151.816 30.2186 151.103 30.2186H149.717V32.8936H151.268ZM149.717 33.7774V36.8294H151.409C152.153 36.8294 152.67 36.6841 152.959 36.3934C153.249 36.1027 153.394 35.7217 153.394 35.2503C153.394 34.9518 153.327 34.6926 153.194 34.4726C153.069 34.2526 152.854 34.0837 152.548 33.9659C152.251 33.8402 151.844 33.7774 151.327 33.7774H149.717Z" fill="white"/>
<defs>
<filter id="filter0_i_71_339" x="184.166" y="1.19928" width="30.6933" height="47.2726" filterUnits="userSpaceOnUse" color-interpolation-filters="sRGB">
<feFlood flood-opacity="0" result="BackgroundImageFix"/>
<feBlend mode="normal" in="SourceGraphic" in2="BackgroundImageFix" result="shape"/>
<feColorMatrix in="SourceAlpha" type="matrix" values="0 0 0 0 0 0 0 0 0 0 0 0 0 0 0 0 0 0 127 0" result="hardAlpha"/>
<feOffset dx="-1.71674" dy="-1.71674"/>
<feGaussianBlur stdDeviation="2.57511"/>
<feComposite in2="hardAlpha" operator="arithmetic" k2="-1" k3="1"/>
<feColorMatrix type="matrix" values="0 0 0 0 1 0 0 0 0 1 0 0 0 0 1 0 0 0 0.12 0"/>
<feBlend mode="normal" in2="shape" result="effect1_innerShadow_71_339"/>
</filter>
<filter id="filter1_i_71_339" x="169.59" y="20.5273" width="30.6933" height="47.2731" filterUnits="userSpaceOnUse" color-interpolation-filters="sRGB">
<feFlood flood-opacity="0" result="BackgroundImageFix"/>
<feBlend mode="normal" in="SourceGraphic" in2="BackgroundImageFix" result="shape"/>
<feColorMatrix in="SourceAlpha" type="matrix" values="0 0 0 0 0 0 0 0 0 0 0 0 0 0 0 0 0 0 127 0" result="hardAlpha"/>
<feOffset dx="1.71674" dy="1.71674"/>
<feGaussianBlur stdDeviation="2.57511"/>
<feComposite in2="hardAlpha" operator="arithmetic" k2="-1" k3="1"/>
<feColorMatrix type="matrix" values="0 0 0 0 1 0 0 0 0 1 0 0 0 0 1 0 0 0 0.12 0"/>
<feBlend mode="normal" in2="shape" result="effect1_innerShadow_71_339"/>
</filter>
<filter id="filter2_ii_71_339" x="224.713" y="15.6739" width="84.9276" height="25.4926" filterUnits="userSpaceOnUse" color-interpolation-filters="sRGB">
<feFlood flood-opacity="0" result="BackgroundImageFix"/>
<feBlend mode="normal" in="SourceGraphic" in2="BackgroundImageFix" result="shape"/>
<feColorMatrix in="SourceAlpha" type="matrix" values="0 0 0 0 0 0 0 0 0 0 0 0 0 0 0 0 0 0 127 0" result="hardAlpha"/>
<feOffset dx="-1.71674" dy="-1.71674"/>
<feGaussianBlur stdDeviation="0.858369"/>
<feComposite in2="hardAlpha" operator="arithmetic" k2="-1" k3="1"/>
<feColorMatrix type="matrix" values="0 0 0 0 0.321569 0 0 0 0 0.0901961 0 0 0 0 0.784314 0 0 0 0.24 0"/>
<feBlend mode="normal" in2="shape" result="effect1_innerShadow_71_339"/>
<feColorMatrix in="SourceAlpha" type="matrix" values="0 0 0 0 0 0 0 0 0 0 0 0 0 0 0 0 0 0 127 0" result="hardAlpha"/>
<feOffset dx="1.71674" dy="1.71674"/>
<feGaussianBlur stdDeviation="1.71674"/>
<feComposite in2="hardAlpha" operator="arithmetic" k2="-1" k3="1"/>
<feColorMatrix type="matrix" values="0 0 0 0 0.980392 0 0 0 0 0.486275 0 0 0 0 0.0745098 0 0 0 0.04 0"/>
<feBlend mode="normal" in2="effect1_innerShadow_71_339" result="effect2_innerShadow_71_339"/>
</filter>
<linearGradient id="paint0_linear_71_339" x1="169.325" y1="4.92749" x2="206.525" y2="35.4352" gradientUnits="userSpaceOnUse">
<stop stop-color="white"/>
<stop offset="1" stop-color="white"/>
</linearGradient>
<linearGradient id="paint1_linear_71_339" x1="215.124" y1="64.0733" x2="177.924" y2="33.5656" gradientUnits="userSpaceOnUse">
<stop stop-color="white"/>
<stop offset="1" stop-color="white"/>
</linearGradient>
<radialGradient id="paint2_radial_71_339" cx="0" cy="0" r="1" gradientUnits="userSpaceOnUse" gradientTransform="translate(198.756 12.8256) rotate(63.3113) scale(51.3362 36.4339)">
<stop stop-color="white"/>
<stop offset="1" stop-color="white"/>
</radialGradient>
<linearGradient id="paint3_linear_71_339" x1="188.757" y1="1.25133" x2="212.9" y2="42.935" gradientUnits="userSpaceOnUse">
<stop stop-color="white" stop-opacity="0.12"/>
<stop offset="1" stop-color="white" stop-opacity="0"/>
</linearGradient>
<radialGradient id="paint4_radial_71_339" cx="0" cy="0" r="1" gradientUnits="userSpaceOnUse" gradientTransform="translate(185.694 56.1743) rotate(-120.306) scale(299.62 212.664)">
<stop stop-color="white"/>
<stop offset="1" stop-color="#CC4400"/>
<stop offset="1" stop-color="white"/>
</radialGradient>
<linearGradient id="paint5_linear_71_339" x1="195.694" y1="67.747" x2="171.551" y2="26.0634" gradientUnits="userSpaceOnUse">
<stop stop-color="white" stop-opacity="0"/>
<stop offset="1" stop-color="white" stop-opacity="0.08"/>
</linearGradient>
</defs>
</svg>
