<svg width="16" height="16" viewBox="0 0 16 16" fill="none" xmlns="http://www.w3.org/2000/svg">
<path d="M8 0C6.41775 0 4.87103 0.469192 3.55544 1.34824C2.23985 2.22729 1.21447 3.47672 0.608967 4.93853C0.00346627 6.40034 -0.15496 8.00887 0.153721 9.56072C0.462403 11.1126 1.22433 12.538 2.34315 13.6569C3.46197 14.7757 4.88743 15.5376 6.43928 15.8463C7.99113 16.155 9.59966 15.9965 11.0615 15.391C12.5233 14.7855 13.7727 13.7602 14.6518 12.4446C15.5308 11.129 16 9.58225 16 8C16 6.94942 15.7931 5.90914 15.391 4.93853C14.989 3.96793 14.3997 3.08601 13.6569 2.34315C12.914 1.60028 12.0321 1.011 11.0615 0.608964C10.0909 0.206926 9.05058 0 8 0ZM8.8 11.2C8.8 11.4122 8.71572 11.6157 8.56569 11.7657C8.41566 11.9157 8.21218 12 8 12C7.78783 12 7.58435 11.9157 7.43432 11.7657C7.28429 11.6157 7.2 11.4122 7.2 11.2V7.2C7.2 6.98782 7.28429 6.78434 7.43432 6.63431C7.58435 6.48428 7.78783 6.4 8 6.4C8.21218 6.4 8.41566 6.48428 8.56569 6.63431C8.71572 6.78434 8.8 6.98782 8.8 7.2V11.2ZM8 5.6C7.84178 5.6 7.68711 5.55308 7.55555 5.46517C7.42399 5.37727 7.32145 5.25233 7.2609 5.10615C7.20035 4.95996 7.18451 4.79911 7.21537 4.64393C7.24624 4.48874 7.32243 4.3462 7.43432 4.23431C7.5462 4.12243 7.68875 4.04624 7.84393 4.01537C7.99911 3.9845 8.15997 4.00035 8.30615 4.06089C8.45233 4.12145 8.57727 4.22398 8.66518 4.35554C8.75308 4.4871 8.8 4.64177 8.8 4.8C8.8 5.01217 8.71572 5.21565 8.56569 5.36568C8.41566 5.51571 8.21218 5.6 8 5.6Z" fill="#B3BAC3"/>
</svg>
