<svg width="30" height="28" viewBox="0 0 30 28" fill="none" xmlns="http://www.w3.org/2000/svg">
<path d="M26.6667 0H3.33333C1.5 0 0 1.4 0 3.11111V24.8889C0 26.6 1.5 28 3.33333 28H26.6667C28.5 28 30 26.6 30 24.8889V3.11111C30 1.4 28.5 0 26.6667 0ZM26.6667 24.8889H3.33333V3.11111H26.6667V24.8889Z" fill="#0077FF"/>
<path d="M10.0003 14H6.66699V21.7778H10.0003V14Z" fill="#0077FF"/>
<path d="M23.3333 6.22229H20V21.7778H23.3333V6.22229Z" fill="#0077FF"/>
<path d="M16.6663 17.1112H13.333V21.7779H16.6663V17.1112Z" fill="#0077FF"/>
<path d="M16.6663 10.8888H13.333V13.9999H16.6663V10.8888Z" fill="#0077FF"/>
</svg>
