<svg width="29" height="28" viewBox="0 0 29 28" fill="none" xmlns="http://www.w3.org/2000/svg">
<path d="M21.9837 20.959L17.2587 18.709C17.0568 18.6134 16.8325 18.5932 16.6194 18.6516C16.4064 18.7099 16.2162 18.8435 16.0774 19.0324L13.9849 21.873C10.7009 20.1526 8.05806 17.2161 6.50969 13.5672L9.06626 11.2422C9.23656 11.0883 9.3571 10.877 9.40962 10.6401C9.46215 10.4033 9.4438 10.1539 9.35735 9.92973L7.33235 4.67973C7.23748 4.43805 7.06968 4.24072 6.85789 4.12178C6.6461 4.00283 6.4036 3.96973 6.17219 4.02817L1.78469 5.15317C1.56159 5.21041 1.36254 5.34999 1.22002 5.54911C1.07751 5.74824 0.999949 5.99516 1 6.24957C1 18.273 9.77079 27.9996 20.575 27.9996C20.8041 27.9997 21.0264 27.9136 21.2057 27.7553C21.385 27.5969 21.5107 27.3757 21.5622 27.1277L22.5747 22.2527C22.627 21.9943 22.5965 21.7238 22.4887 21.4877C22.3808 21.2515 22.2022 21.0646 21.9837 20.959Z" fill="white"/>
<path d="M22 2.91667V11.0833" stroke="white" stroke-width="1.5" stroke-linecap="round" stroke-linejoin="round"/>
<path d="M17.9166 7H26.0833" stroke="white" stroke-width="1.5" stroke-linecap="round" stroke-linejoin="round"/>
</svg>
